<?xml version="1.0" encoding="iso-8859-1"?>
<!-- Generator: Adobe Illustrator 19.0.0, SVG Export Plug-In . SVG Version: 6.00 Build 0)  -->
<svg version="1.1" xmlns="http://www.w3.org/2000/svg" xmlns:xlink="http://www.w3.org/1999/xlink" x="0px" y="0px"
	 viewBox="0 0 59.606 48.812" style="enable-background:new 0 0 59.606 48.812;" xml:space="preserve">
<g id="heavy_x5F_snow">
	<path id="XMLID_97_" d="M47.348,35.188c-0.414,0-0.75-0.336-0.75-0.75c0-0.414,0.336-0.75,0.75-0.75
		c5.932,0,10.758-4.827,10.758-10.76c0-5.934-4.826-10.762-10.758-10.762c-1.107,0-2.204,0.17-3.259,0.506l-0.69,0.22l-0.243-0.684
		C40.876,5.804,34.787,1.5,28.004,1.5c-8.292,0-15.175,6.213-16.011,14.452l-0.078,0.766l-0.763-0.097
		c-0.41-0.052-0.754-0.076-1.082-0.076c-4.726,0-8.571,3.845-8.571,8.571c0,4.726,3.845,8.571,8.571,8.571
		c0.414,0,0.75,0.336,0.75,0.75c0,0.414-0.336,0.75-0.75,0.75C4.518,35.188,0,30.67,0,25.116s4.518-10.071,10.071-10.071
		c0.17,0,0.341,0.005,0.52,0.016C11.831,6.424,19.189,0,28.004,0c7.181,0,13.65,4.41,16.315,11.046
		c0.989-0.252,2.005-0.38,3.029-0.38c6.759,0,12.258,5.501,12.258,12.262C59.606,29.688,54.107,35.188,47.348,35.188z"/>
	<g id="XMLID_93_">
		<path id="XMLID_96_" d="M44.328,44.36l-4.161-2.402l4.161-2.402c0.359-0.207,0.481-0.666,0.275-1.024
			c-0.207-0.358-0.667-0.481-1.025-0.274l-4.16,2.401v-4.804c0-0.414-0.336-0.75-0.75-0.75c-0.414,0-0.75,0.336-0.75,0.75v4.805
			l-4.16-2.402c-0.357-0.207-0.817-0.084-1.024,0.274s-0.085,0.817,0.274,1.024l4.16,2.402l-4.162,2.402
			c-0.359,0.207-0.481,0.666-0.274,1.024c0.139,0.24,0.391,0.375,0.65,0.375c0.128,0,0.256-0.032,0.375-0.101l4.162-2.402v4.805
			c0,0.414,0.336,0.75,0.75,0.75c0.414,0,0.75-0.336,0.75-0.75v-4.805l4.16,2.402c0.118,0.068,0.247,0.101,0.375,0.101
			c0.259,0,0.511-0.135,0.65-0.375C44.81,45.026,44.687,44.567,44.328,44.36z"/>
		<path id="XMLID_95_" d="M24.16,41.671l-3.187-1.84l3.186-1.84c0.359-0.207,0.481-0.666,0.274-1.024s-0.666-0.48-1.024-0.275
			l-3.186,1.84v-3.68c0-0.414-0.336-0.75-0.75-0.75c-0.414,0-0.75,0.336-0.75,0.75v3.679l-3.186-1.839
			c-0.358-0.206-0.817-0.084-1.024,0.275c-0.207,0.358-0.085,0.817,0.274,1.024l3.186,1.84l-3.187,1.84
			c-0.359,0.207-0.481,0.666-0.274,1.024c0.139,0.24,0.391,0.375,0.65,0.375c0.128,0,0.256-0.032,0.375-0.101l3.187-1.84v3.68
			c0,0.414,0.336,0.75,0.75,0.75c0.414,0,0.75-0.336,0.75-0.75v-3.681l3.188,1.841c0.118,0.068,0.247,0.101,0.374,0.101
			c0.259,0,0.511-0.135,0.65-0.375C24.642,42.337,24.519,41.878,24.16,41.671z"/>
		<path id="XMLID_94_" d="M33.1,33.347c0.259,0,0.511-0.135,0.65-0.375c0.207-0.358,0.084-0.817-0.274-1.024l-2.062-1.19l2.062-1.19
			c0.359-0.207,0.481-0.666,0.274-1.024c-0.207-0.358-0.667-0.483-1.024-0.274l-2.063,1.191v-2.382c0-0.414-0.336-0.75-0.75-0.75
			c-0.414,0-0.75,0.336-0.75,0.75v2.38l-2.061-1.19c-0.358-0.208-0.818-0.084-1.024,0.274c-0.207,0.358-0.085,0.817,0.274,1.024
			l2.062,1.19l-2.063,1.19c-0.359,0.207-0.481,0.666-0.274,1.024c0.139,0.24,0.391,0.375,0.65,0.375c0.127,0,0.256-0.032,0.375-0.1
			l2.062-1.19v2.38c0,0.414,0.336,0.75,0.75,0.75c0.414,0,0.75-0.336,0.75-0.75v-2.382l2.063,1.191
			C32.844,33.314,32.973,33.347,33.1,33.347z"/>
	</g>
</g>
<g id="Ebene_1">
</g>
</svg>
