<?xml version="1.0" encoding="iso-8859-1"?>
<!-- Generator: Adobe Illustrator 19.0.0, SVG Export Plug-In . SVG Version: 6.00 Build 0)  -->
<svg version="1.1" xmlns="http://www.w3.org/2000/svg" xmlns:xlink="http://www.w3.org/1999/xlink" x="0px" y="0px"
	 viewBox="0 0 59.606 48.115" style="enable-background:new 0 0 59.606 48.115;" xml:space="preserve">
<g id="heavy_x5F_rain">
	<g id="XMLID_71_">
		<g id="XMLID_73_">
			<path id="XMLID_80_" d="M30.546,33.581c-2.035,0-3.512-1.497-3.512-3.561c0-1.937,2.625-5.309,2.923-5.688l0.588-0.743
				l0.588,0.744c0.299,0.378,2.921,3.75,2.921,5.687C34.056,32.084,32.58,33.581,30.546,33.581z M30.546,26.049
				c-0.94,1.314-2.012,3.095-2.012,3.972c0,1.424,1.01,2.061,2.012,2.061c1.001,0,2.01-0.637,2.01-2.061
				C32.556,29.143,31.485,27.361,30.546,26.049z"/>
			<path id="XMLID_77_" d="M20.104,41.733c-2.57,0-4.436-1.895-4.436-4.504c0-2.5,3.453-6.941,3.847-7.439l0.588-0.744l0.588,0.744
				c0.394,0.498,3.848,4.939,3.848,7.439C24.54,39.839,22.674,41.733,20.104,41.733z M20.104,31.496
				c-1.318,1.805-2.936,4.442-2.936,5.733c0,1.769,1.207,3.004,2.936,3.004c1.729,0,2.937-1.235,2.937-3.004
				C23.04,35.938,21.422,33.301,20.104,31.496z"/>
			<path id="XMLID_74_" d="M38.911,48.115c-3.026,0-5.222-2.23-5.222-5.305c0-2.979,4.16-8.328,4.634-8.928l0.588-0.745l0.588,0.745
				c0.474,0.6,4.634,5.948,4.634,8.928C44.133,45.885,41.937,48.115,38.911,48.115z M38.911,35.586
				c-1.406,1.906-3.722,5.426-3.722,7.225c0,2.24,1.531,3.805,3.722,3.805c2.191,0,3.722-1.564,3.722-3.805
				C42.633,41.01,40.316,37.492,38.911,35.586z"/>
		</g>
		<path id="XMLID_72_" d="M47.348,35.188c-0.414,0-0.75-0.336-0.75-0.75c0-0.414,0.336-0.75,0.75-0.75
			c5.932,0,10.758-4.827,10.758-10.76c0-5.934-4.826-10.762-10.758-10.762c-1.107,0-2.204,0.17-3.259,0.506l-0.69,0.22l-0.243-0.684
			C40.876,5.804,34.787,1.5,28.004,1.5c-8.292,0-15.175,6.213-16.011,14.452l-0.078,0.766l-0.763-0.097
			c-0.41-0.052-0.754-0.076-1.082-0.076c-4.726,0-8.571,3.845-8.571,8.571c0,4.727,3.845,8.571,8.571,8.571
			c0.414,0,0.75,0.336,0.75,0.75c0,0.414-0.336,0.75-0.75,0.75C4.518,35.188,0,30.67,0,25.116s4.518-10.071,10.071-10.071
			c0.17,0,0.341,0.005,0.52,0.016C11.831,6.424,19.189,0,28.004,0c7.181,0,13.65,4.41,16.315,11.046
			c0.989-0.252,2.005-0.38,3.029-0.38c6.759,0,12.258,5.501,12.258,12.262C59.606,29.688,54.107,35.188,47.348,35.188z"/>
	</g>
</g>
<g id="Ebene_1">
</g>
</svg>
