<?xml version="1.0" encoding="iso-8859-1"?>
<!-- Generator: Adobe Illustrator 19.0.0, SVG Export Plug-In . SVG Version: 6.00 Build 0)  -->
<svg version="1.1" xmlns="http://www.w3.org/2000/svg" xmlns:xlink="http://www.w3.org/1999/xlink" x="0px" y="0px"
	 viewBox="0 0 71.479 41.165" style="enable-background:new 0 0 71.479 41.165;" xml:space="preserve">
<g id="heavy_x5F_clouds">
	<g id="XMLID_172_">
		<path id="XMLID_176_" d="M63.959,25.968h-1.304c-0.414,0-0.75-0.336-0.75-0.75c0-0.414,0.336-0.75,0.75-0.75h1.304
			c3.319,0,6.02-2.701,6.02-6.021c0-3.319-2.7-6.021-6.02-6.021c-0.261,0-0.514,0.024-0.765,0.054l-0.76,0.093l-0.077-0.762
			C61.763,5.934,56.852,1.5,50.934,1.5c-4.011,0-7.664,2.052-9.772,5.489c-0.217,0.353-0.676,0.461-1.032,0.247
			c-0.353-0.217-0.463-0.679-0.247-1.032C42.266,2.319,46.396,0,50.934,0c6.443,0,11.831,4.649,12.821,10.931
			c0.068-0.003,0.136-0.004,0.204-0.004c4.146,0,7.52,3.374,7.52,7.521C71.479,22.594,68.105,25.968,63.959,25.968z"/>
		<path id="XMLID_173_" d="M47.347,41.165H10.071C4.518,41.165,0,36.647,0,31.095c0-5.554,4.518-10.072,10.071-10.072
			c0.168,0,0.34,0.006,0.522,0.017c1.238-8.637,8.597-15.061,17.411-15.061c7.182,0,13.65,4.41,16.313,11.046
			c0.992-0.252,2.008-0.38,3.03-0.38c6.76,0,12.26,5.5,12.26,12.261C59.606,35.665,54.106,41.165,47.347,41.165z M10.071,22.522
			c-4.726,0-8.571,3.846-8.571,8.572c0,4.726,3.845,8.57,8.571,8.57h37.275c5.933,0,10.76-4.827,10.76-10.76
			c0-5.934-4.827-10.761-10.76-10.761c-1.104,0-2.202,0.17-3.261,0.505l-0.69,0.219l-0.243-0.683
			c-2.277-6.404-8.365-10.707-15.148-10.707c-8.292,0-15.174,6.213-16.01,14.451l-0.077,0.764l-0.761-0.095
			C10.735,22.547,10.391,22.522,10.071,22.522z"/>
	</g>
</g>
<g id="Ebene_1">
</g>
</svg>
