<?xml version="1.0" encoding="iso-8859-1"?>
<!-- Generator: Adobe Illustrator 19.0.0, SVG Export Plug-In . SVG Version: 6.00 Build 0)  -->
<svg version="1.1" xmlns="http://www.w3.org/2000/svg" xmlns:xlink="http://www.w3.org/1999/xlink" x="0px" y="0px"
	 viewBox="0 0 59.606 41.851" style="enable-background:new 0 0 59.606 41.851;" xml:space="preserve">
<g id="light_x5F_rain">
	<g id="XMLID_57_">
		<path id="XMLID_59_" d="M29.803,41.851c-3.026,0-5.223-2.23-5.223-5.305c0-2.979,4.16-8.328,4.634-8.928l0.588-0.744l0.588,0.744
			c0.474,0.6,4.634,5.948,4.634,8.928C35.025,39.62,32.829,41.851,29.803,41.851z M29.803,29.321
			c-1.406,1.907-3.723,5.426-3.723,7.225c0,2.24,1.531,3.805,3.723,3.805s3.723-1.564,3.723-3.805
			C33.525,34.747,31.208,31.229,29.803,29.321z"/>
		<path id="XMLID_58_" d="M47.347,35.187h-7.011c-0.414,0-0.75-0.336-0.75-0.75s0.336-0.75,0.75-0.75h7.011
			c5.933,0,10.76-4.827,10.76-10.76c0-5.934-4.827-10.761-10.76-10.761c-1.105,0-2.202,0.17-3.26,0.505l-0.69,0.219l-0.243-0.683
			C40.875,5.803,34.787,1.5,28.004,1.5c-8.293,0-15.175,6.213-16.01,14.451l-0.077,0.764l-0.761-0.095
			c-0.421-0.052-0.766-0.076-1.085-0.076c-4.726,0-8.571,3.846-8.571,8.572c0,4.726,3.845,8.57,8.571,8.57h9.102
			c0.414,0,0.75,0.336,0.75,0.75s-0.336,0.75-0.75,0.75h-9.102C4.518,35.187,0,30.669,0,25.116c0-5.554,4.518-10.072,10.071-10.072
			c0.168,0,0.34,0.006,0.521,0.017C11.831,6.424,19.188,0,28.004,0c7.182,0,13.65,4.41,16.314,11.046
			c0.991-0.252,2.006-0.38,3.029-0.38c6.76,0,12.26,5.5,12.26,12.261C59.606,29.687,54.107,35.187,47.347,35.187z"/>
	</g>
</g>
<g id="Ebene_1">
</g>
</svg>
