<?xml version="1.0" encoding="iso-8859-1"?>
<!-- Generator: Adobe Illustrator 19.0.0, SVG Export Plug-In . SVG Version: 6.00 Build 0)  -->
<svg version="1.1" xmlns="http://www.w3.org/2000/svg" xmlns:xlink="http://www.w3.org/1999/xlink" x="0px" y="0px"
	 viewBox="0 0 59.606 42.215" style="enable-background:new 0 0 59.606 42.215;" xml:space="preserve">
<g id="light_x5F_snow">
	<path id="XMLID_88_" d="M47.347,35.187h-7.011c-0.414,0-0.75-0.336-0.75-0.75c0-0.414,0.336-0.75,0.75-0.75h7.011
		c5.933,0,10.76-4.827,10.76-10.76c0-5.934-4.827-10.761-10.76-10.761c-1.105,0-2.202,0.17-3.26,0.505l-0.69,0.219l-0.243-0.683
		C40.875,5.803,34.787,1.5,28.004,1.5c-8.293,0-15.175,6.213-16.01,14.451l-0.077,0.764l-0.761-0.095
		c-0.421-0.052-0.766-0.076-1.085-0.076c-4.726,0-8.571,3.846-8.571,8.572c0,4.726,3.845,8.57,8.571,8.57h9.102
		c0.414,0,0.75,0.336,0.75,0.75c0,0.414-0.336,0.75-0.75,0.75h-9.102C4.518,35.187,0,30.669,0,25.116
		c0-5.554,4.518-10.072,10.071-10.072c0.168,0,0.34,0.006,0.521,0.017C11.831,6.424,19.188,0,28.004,0
		c7.182,0,13.65,4.41,16.314,11.046c0.991-0.252,2.006-0.38,3.029-0.38c6.76,0,12.26,5.5,12.26,12.261
		C59.606,29.687,54.107,35.187,47.347,35.187z"/>
	<path id="XMLID_87_" d="M35.465,37.764l-4.162-2.402l4.161-2.402c0.359-0.207,0.481-0.666,0.274-1.024
		c-0.207-0.359-0.667-0.481-1.024-0.274l-4.16,2.402v-4.805c0-0.414-0.336-0.75-0.75-0.75c-0.414,0-0.75,0.336-0.75,0.75v4.805
		l-4.161-2.402c-0.357-0.207-0.817-0.085-1.024,0.274c-0.207,0.358-0.084,0.817,0.274,1.024l4.161,2.402l-4.161,2.402
		c-0.359,0.207-0.481,0.666-0.274,1.024c0.139,0.24,0.391,0.375,0.65,0.375c0.127,0,0.256-0.032,0.374-0.101l4.161-2.402v4.805
		c0,0.414,0.336,0.75,0.75,0.75c0.414,0,0.75-0.336,0.75-0.75V36.66l4.161,2.402c0.118,0.068,0.247,0.101,0.375,0.101
		c0.259,0,0.511-0.135,0.65-0.375C35.946,38.43,35.824,37.971,35.465,37.764z"/>
</g>
<g id="Ebene_1">
</g>
</svg>
