<?xml version="1.0" encoding="iso-8859-1"?>
<!-- Generator: Adobe Illustrator 19.0.0, SVG Export Plug-In . SVG Version: 6.00 Build 0)  -->
<svg version="1.1" xmlns="http://www.w3.org/2000/svg" xmlns:xlink="http://www.w3.org/1999/xlink" x="0px" y="0px"
	 viewBox="0 0 77.758 55.455" style="enable-background:new 0 0 77.758 55.455;" xml:space="preserve">
<g id="partly_x5F_cloudy">
	<g id="XMLID_15_">
		<g id="XMLID_19_">
			<path id="XMLID_26_" d="M31.719,10.988c-0.086,0-0.172-0.014-0.256-0.045c-0.389-0.142-0.59-0.572-0.448-0.961l3.452-9.487
				c0.142-0.39,0.575-0.592,0.961-0.448c0.389,0.142,0.59,0.572,0.448,0.961l-3.452,9.487
				C32.313,10.799,32.025,10.988,31.719,10.988z"/>
			<path id="XMLID_25_" d="M40.023,17.956c-0.259,0-0.511-0.134-0.65-0.375c-0.207-0.359-0.085-0.817,0.274-1.024l8.744-5.049
				c0.359-0.208,0.817-0.085,1.024,0.274c0.207,0.359,0.084,0.817-0.274,1.024l-8.744,5.049
				C40.28,17.924,40.151,17.956,40.023,17.956z"/>
			<path id="XMLID_24_" d="M20.88,10.988c-0.306,0-0.594-0.189-0.705-0.493L16.72,1.009c-0.142-0.389,0.059-0.82,0.448-0.961
				c0.39-0.14,0.82,0.059,0.961,0.448l3.455,9.486c0.142,0.389-0.059,0.82-0.448,0.961C21.052,10.974,20.966,10.988,20.88,10.988z"
				/>
			<path id="XMLID_23_" d="M12.576,17.956c-0.127,0-0.256-0.032-0.374-0.101L3.456,12.81c-0.358-0.207-0.482-0.665-0.274-1.024
				c0.206-0.36,0.665-0.482,1.024-0.274l8.745,5.046c0.358,0.207,0.481,0.665,0.274,1.024
				C13.087,17.822,12.835,17.956,12.576,17.956z"/>
			<path id="XMLID_22_" d="M0.749,30.387c-0.357,0-0.673-0.256-0.738-0.62c-0.072-0.408,0.201-0.797,0.608-0.869l9.944-1.756
				c0.408-0.07,0.797,0.2,0.869,0.608c0.072,0.408-0.201,0.797-0.608,0.869l-9.944,1.756C0.837,30.383,0.793,30.387,0.749,30.387z"
				/>
			<path id="XMLID_21_" d="M9.624,45.755c-0.17,0-0.341-0.058-0.481-0.175c-0.317-0.266-0.359-0.739-0.093-1.057l6.489-7.736
				c0.266-0.317,0.739-0.359,1.057-0.093c0.317,0.266,0.359,0.739,0.093,1.057l-6.489,7.736
				C10.051,45.664,9.838,45.755,9.624,45.755z"/>
			<path id="XMLID_20_" d="M20.264,35.126c-0.146,0-0.293-0.042-0.422-0.131c-3.237-2.21-5.169-5.899-5.169-9.866
				c0-6.543,5.215-11.865,11.626-11.865c4.111,0,7.957,2.259,10.038,5.896c0.206,0.36,0.081,0.818-0.278,1.024
				c-0.359,0.207-0.818,0.082-1.023-0.278c-1.815-3.171-5.162-5.141-8.736-5.141c-5.583,0-10.126,4.65-10.126,10.365
				c0,3.472,1.688,6.697,4.515,8.628c0.342,0.233,0.43,0.7,0.196,1.042C20.739,35.012,20.504,35.126,20.264,35.126z"/>
		</g>
		<path id="XMLID_16_" d="M65.498,55.455H28.223c-5.554,0-10.072-4.518-10.072-10.07c0-5.554,4.519-10.072,10.072-10.072
			c0.168,0,0.34,0.005,0.521,0.017c1.238-8.637,8.596-15.061,17.412-15.061c7.182,0,13.65,4.41,16.314,11.046
			c0.991-0.252,2.006-0.38,3.029-0.38c6.76,0,12.26,5.5,12.26,12.261C77.758,49.956,72.259,55.455,65.498,55.455z M28.223,36.813
			c-4.727,0-8.572,3.846-8.572,8.572c0,4.726,3.846,8.57,8.572,8.57h37.275c5.933,0,10.76-4.827,10.76-10.76
			c0-5.934-4.827-10.761-10.76-10.761c-1.105,0-2.202,0.17-3.26,0.505l-0.69,0.219l-0.243-0.682
			c-2.278-6.404-8.367-10.708-15.15-10.708c-8.292,0-15.175,6.213-16.01,14.452l-0.077,0.763l-0.761-0.094
			C28.886,36.837,28.542,36.813,28.223,36.813z"/>
	</g>
</g>
<g id="Ebene_1">
</g>
</svg>
