<?xml version="1.0" encoding="iso-8859-1"?>
<!-- Generator: Adobe Illustrator 19.0.0, SVG Export Plug-In . SVG Version: 6.00 Build 0)  -->
<svg version="1.1" xmlns="http://www.w3.org/2000/svg" xmlns:xlink="http://www.w3.org/1999/xlink" x="0px" y="0px"
	 viewBox="0 0 39.729 40.724" style="enable-background:new 0 0 39.729 40.724;" xml:space="preserve">
<g id="quarter_x5F_moon">
	<path id="XMLID_134_" d="M20.359,40.724C9.133,40.724,0,31.397,0,19.934c0-8.44,4.94-15.98,12.585-19.209L14.303,0l-0.737,1.713
		c-1.06,2.463-1.597,5.071-1.597,7.752c0,10.635,8.46,19.287,18.859,19.287c2.479,0,4.897-0.49,7.184-1.456l1.718-0.727
		l-0.737,1.714C35.741,35.84,28.427,40.724,20.359,40.724z M11.513,2.902C5.375,6.228,1.5,12.727,1.5,19.934
		c0,10.636,8.46,19.289,18.859,19.289c6.867,0,13.146-3.827,16.456-9.891c-1.935,0.61-3.942,0.919-5.988,0.919
		c-11.226,0-20.359-9.325-20.359-20.787C10.469,7.218,10.819,5.017,11.513,2.902z"/>
</g>
<g id="Ebene_1">
</g>
</svg>
