<?xml version="1.0" encoding="iso-8859-1"?>
<!-- Generator: Adobe Illustrator 19.0.0, SVG Export Plug-In . SVG Version: 6.00 Build 0)  -->
<svg version="1.1" xmlns="http://www.w3.org/2000/svg" xmlns:xlink="http://www.w3.org/1999/xlink" x="0px" y="0px"
	 viewBox="0 0 77.813 60.456" style="enable-background:new 0 0 77.813 60.456;" xml:space="preserve">
<g id="rainy_x5F_storm_x5F_sunny">
	<g id="XMLID_153_">
		<path id="XMLID_160_" d="M31.719,10.988c-0.085,0-0.172-0.014-0.257-0.045c-0.389-0.142-0.59-0.572-0.448-0.961l3.452-9.487
			c0.142-0.389,0.57-0.591,0.962-0.448c0.389,0.142,0.59,0.572,0.448,0.961l-3.452,9.487C32.312,10.799,32.025,10.988,31.719,10.988
			z"/>
		<path id="XMLID_159_" d="M40.023,17.956c-0.26,0-0.512-0.134-0.65-0.375c-0.207-0.359-0.084-0.817,0.274-1.024l8.744-5.049
			c0.359-0.208,0.818-0.084,1.024,0.274c0.207,0.359,0.084,0.817-0.274,1.024l-8.744,5.049
			C40.279,17.923,40.15,17.956,40.023,17.956z"/>
		<path id="XMLID_158_" d="M20.88,10.988c-0.307,0-0.594-0.189-0.705-0.493l-3.454-9.486c-0.142-0.39,0.06-0.82,0.448-0.962
			c0.392-0.141,0.82,0.059,0.962,0.448l3.454,9.486c0.142,0.39-0.06,0.82-0.448,0.961C21.052,10.973,20.965,10.988,20.88,10.988z"/>
		<path id="XMLID_157_" d="M12.575,17.956c-0.127,0-0.256-0.032-0.374-0.101l-8.745-5.046c-0.358-0.207-0.481-0.666-0.275-1.024
			c0.207-0.358,0.664-0.482,1.025-0.274l8.745,5.046c0.358,0.207,0.481,0.666,0.274,1.024
			C13.087,17.821,12.835,17.956,12.575,17.956z"/>
		<path id="XMLID_156_" d="M0.749,30.386c-0.357,0-0.674-0.256-0.737-0.62c-0.072-0.408,0.2-0.797,0.607-0.869l9.944-1.756
			c0.419-0.071,0.798,0.201,0.869,0.608c0.072,0.408-0.2,0.797-0.607,0.869l-9.944,1.756C0.836,30.383,0.792,30.386,0.749,30.386z"
			/>
		<path id="XMLID_155_" d="M9.624,45.754c-0.171,0-0.342-0.058-0.482-0.175c-0.317-0.266-0.358-0.739-0.092-1.057l6.489-7.736
			c0.266-0.317,0.74-0.358,1.057-0.093c0.317,0.266,0.358,0.739,0.092,1.057l-6.489,7.736C10.051,45.663,9.838,45.754,9.624,45.754z
			"/>
		<path id="XMLID_154_" d="M20.264,35.126c-0.145,0-0.293-0.042-0.422-0.131c-3.236-2.21-5.169-5.899-5.169-9.866
			c0-6.542,5.216-11.865,11.627-11.865c4.11,0,7.957,2.259,10.038,5.896c0.205,0.36,0.081,0.818-0.279,1.024
			c-0.36,0.206-0.817,0.08-1.023-0.278c-1.814-3.171-5.161-5.141-8.735-5.141c-5.584,0-10.127,4.65-10.127,10.365
			c0,3.472,1.688,6.697,4.515,8.628c0.342,0.233,0.43,0.7,0.196,1.042C20.739,35.011,20.504,35.126,20.264,35.126z"/>
	</g>
	<g id="XMLID_141_">
		<path id="XMLID_152_" d="M61.336,23.658H37.969c-0.414,0-0.75-0.336-0.75-0.75c0-0.414,0.336-0.75,0.75-0.75h23.367
			c0.414,0,0.75,0.336,0.75,0.75C62.086,23.322,61.75,23.658,61.336,23.658z"/>
		<g id="XMLID_149_">
			<path id="XMLID_151_" d="M59.952,42.057H20.636c-0.414,0-0.75-0.336-0.75-0.75c0-0.414,0.336-0.75,0.75-0.75h39.316
				c0.414,0,0.75,0.336,0.75,0.75C60.702,41.721,60.366,42.057,59.952,42.057z"/>
			<path id="XMLID_150_" d="M71.711,42.057h-6.604c-0.414,0-0.75-0.336-0.75-0.75c0-0.414,0.336-0.75,0.75-0.75h6.604
				c0.414,0,0.75,0.336,0.75,0.75C72.461,41.721,72.125,42.057,71.711,42.057z"/>
		</g>
		<path id="XMLID_148_" d="M57.106,60.456H39.861c-0.414,0-0.75-0.336-0.75-0.75c0-0.414,0.336-0.75,0.75-0.75h17.245
			c0.414,0,0.75,0.336,0.75,0.75C57.856,60.12,57.52,60.456,57.106,60.456z"/>
		<g id="XMLID_145_">
			<path id="XMLID_147_" d="M77.063,51.256H47.089c-0.414,0-0.75-0.336-0.75-0.75s0.336-0.75,0.75-0.75h29.975
				c0.414,0,0.75,0.336,0.75,0.75S77.477,51.256,77.063,51.256z"/>
			<path id="XMLID_146_" d="M41.446,51.256H28.452c-0.414,0-0.75-0.336-0.75-0.75s0.336-0.75,0.75-0.75h12.994
				c0.414,0,0.75,0.336,0.75,0.75S41.86,51.256,41.446,51.256z"/>
		</g>
		<g id="XMLID_142_">
			<path id="XMLID_144_" d="M77.063,32.857H55.774c-0.414,0-0.75-0.336-0.75-0.75c0-0.414,0.336-0.75,0.75-0.75h21.289
				c0.414,0,0.75,0.336,0.75,0.75C77.813,32.521,77.477,32.857,77.063,32.857z"/>
			<path id="XMLID_143_" d="M49.653,32.858H30.067c-0.414,0-0.75-0.336-0.75-0.75c0-0.414,0.336-0.75,0.75-0.75h19.586
				c0.414,0,0.75,0.336,0.75,0.75C50.403,32.522,50.067,32.858,49.653,32.858z"/>
		</g>
	</g>
</g>
<g id="Ebene_1">
</g>
</svg>
