<?xml version="1.0" encoding="iso-8859-1"?>
<!-- Generator: Adobe Illustrator 19.0.0, SVG Export Plug-In . SVG Version: 6.00 Build 0)  -->
<svg version="1.1" xmlns="http://www.w3.org/2000/svg" xmlns:xlink="http://www.w3.org/1999/xlink" x="0px" y="0px"
	 viewBox="0 0 59.605 44.57" style="enable-background:new 0 0 59.605 44.57;" xml:space="preserve">
<g id="rain">
	<g id="XMLID_62_">
		<g id="XMLID_64_">
			<path id="XMLID_68_" d="M22.788,38.306c-2.034,0-3.511-1.497-3.511-3.56c0-1.937,2.624-5.309,2.922-5.687l0.588-0.744
				l0.588,0.744c0.299,0.378,2.92,3.75,2.92,5.687C26.297,36.809,24.821,38.306,22.788,38.306z M22.788,30.773
				c-0.939,1.315-2.011,3.095-2.011,3.972c0,1.424,1.01,2.06,2.011,2.06c1,0,2.009-0.637,2.009-2.06
				C24.797,33.867,23.727,32.087,22.788,30.773z"/>
			<path id="XMLID_65_" d="M34.403,44.57c-3.026,0-5.223-2.23-5.223-5.305c0-2.979,4.16-8.328,4.634-8.928l0.588-0.744l0.588,0.744
				c0.474,0.6,4.634,5.948,4.634,8.928C39.626,42.34,37.43,44.57,34.403,44.57z M34.403,32.041
				c-1.406,1.907-3.723,5.426-3.723,7.225c0,2.24,1.531,3.805,3.723,3.805c2.192,0,3.723-1.564,3.723-3.805
				C38.126,37.467,35.809,33.948,34.403,32.041z"/>
		</g>
		<path id="XMLID_63_" d="M47.346,35.188h-3.734c-0.414,0-0.75-0.336-0.75-0.75c0-0.414,0.336-0.75,0.75-0.75h3.734
			c5.933,0,10.76-4.827,10.76-10.76c0-5.934-4.827-10.762-10.76-10.762c-1.106,0-2.203,0.17-3.259,0.506l-0.691,0.22l-0.243-0.684
			C40.875,5.804,34.786,1.5,28.003,1.5c-8.293,0-15.175,6.213-16.01,14.452l-0.077,0.766l-0.763-0.097
			c-0.412-0.052-0.755-0.076-1.083-0.076c-4.726,0-8.57,3.845-8.57,8.571c0,4.726,3.845,8.571,8.57,8.571h4.041
			c0.414,0,0.75,0.336,0.75,0.75c0,0.414-0.336,0.75-0.75,0.75H10.07C4.518,35.188,0,30.67,0,25.116s4.518-10.071,10.07-10.071
			c0.17,0,0.342,0.005,0.521,0.016C11.83,6.424,19.187,0,28.003,0c7.181,0,13.649,4.411,16.313,11.047
			c0.99-0.253,2.006-0.381,3.029-0.381c6.76,0,12.26,5.501,12.26,12.262C59.605,29.688,54.106,35.188,47.346,35.188z"/>
	</g>
</g>
<g id="Ebene_1">
</g>
</svg>
