<?xml version="1.0" encoding="iso-8859-1"?>
<!-- Generator: Adobe Illustrator 19.0.0, SVG Export Plug-In . SVG Version: 6.00 Build 0)  -->
<svg version="1.1" xmlns="http://www.w3.org/2000/svg" xmlns:xlink="http://www.w3.org/1999/xlink" x="0px" y="0px"
	 viewBox="0 0 57.928 38.298" style="enable-background:new 0 0 57.928 38.298;" xml:space="preserve">
<g id="rainy_x5F_storm">
	<g id="XMLID_109_">
		<path id="XMLID_120_" d="M41.449,1.5H18.082c-0.414,0-0.75-0.336-0.75-0.75c0-0.414,0.336-0.75,0.75-0.75h23.367
			c0.414,0,0.75,0.336,0.75,0.75C42.199,1.164,41.863,1.5,41.449,1.5z"/>
		<g id="XMLID_117_">
			<path id="XMLID_119_" d="M40.066,19.9H0.75C0.336,19.9,0,19.564,0,19.15c0-0.414,0.336-0.75,0.75-0.75h39.316
				c0.414,0,0.75,0.336,0.75,0.75C40.816,19.564,40.48,19.9,40.066,19.9z"/>
			<path id="XMLID_118_" d="M51.825,19.9h-6.604c-0.414,0-0.75-0.336-0.75-0.75c0-0.414,0.336-0.75,0.75-0.75h6.604
				c0.414,0,0.75,0.336,0.75,0.75C52.575,19.564,52.239,19.9,51.825,19.9z"/>
		</g>
		<path id="XMLID_116_" d="M37.221,38.298H19.976c-0.414,0-0.75-0.336-0.75-0.75s0.336-0.75,0.75-0.75h17.245
			c0.414,0,0.75,0.336,0.75,0.75S37.635,38.298,37.221,38.298z"/>
		<g id="XMLID_113_">
			<path id="XMLID_115_" d="M57.178,29.099H27.203c-0.414,0-0.75-0.336-0.75-0.75c0-0.414,0.336-0.75,0.75-0.75h29.975
				c0.414,0,0.75,0.336,0.75,0.75C57.928,28.763,57.592,29.099,57.178,29.099z"/>
			<path id="XMLID_114_" d="M21.561,29.099H8.566c-0.414,0-0.75-0.336-0.75-0.75c0-0.414,0.336-0.75,0.75-0.75h12.994
				c0.414,0,0.75,0.336,0.75,0.75C22.311,28.763,21.975,29.099,21.561,29.099z"/>
		</g>
		<g id="XMLID_110_">
			<path id="XMLID_112_" d="M57.178,10.699H35.889c-0.414,0-0.75-0.336-0.75-0.75c0-0.414,0.336-0.75,0.75-0.75h21.289
				c0.414,0,0.75,0.336,0.75,0.75C57.928,10.363,57.592,10.699,57.178,10.699z"/>
			<path id="XMLID_111_" d="M29.768,10.7H10.182c-0.414,0-0.75-0.336-0.75-0.75c0-0.414,0.336-0.75,0.75-0.75h19.586
				c0.414,0,0.75,0.336,0.75,0.75C30.518,10.364,30.182,10.7,29.768,10.7z"/>
		</g>
	</g>
</g>
<g id="Ebene_1">
</g>
</svg>
