<?xml version="1.0" encoding="iso-8859-1"?>
<!-- Generator: Adobe Illustrator 19.0.0, SVG Export Plug-In . SVG Version: 6.00 Build 0)  -->
<svg version="1.1" xmlns="http://www.w3.org/2000/svg" xmlns:xlink="http://www.w3.org/1999/xlink" x="0px" y="0px"
	 viewBox="0 0 59.605 49.431" style="enable-background:new 0 0 59.605 49.431;" xml:space="preserve">
<g id="rainy_x5F_storm_x5F_cloudy">
	<path id="XMLID_133_" d="M47.346,35.188c-0.414,0-0.75-0.336-0.75-0.75c0-0.414,0.336-0.75,0.75-0.75
		c5.933,0,10.76-4.827,10.76-10.76c0-5.934-4.827-10.762-10.76-10.762c-1.106,0-2.203,0.17-3.259,0.506l-0.691,0.22l-0.243-0.684
		C40.875,5.804,34.786,1.5,28.003,1.5c-8.293,0-15.175,6.213-16.01,14.452l-0.077,0.766l-0.763-0.097
		c-0.412-0.052-0.755-0.076-1.083-0.076c-4.726,0-8.57,3.845-8.57,8.571s3.845,8.571,8.57,8.571c0.414,0,0.75,0.336,0.75,0.75
		c0,0.414-0.336,0.75-0.75,0.75C4.518,35.188,0,30.67,0,25.116s4.518-10.071,10.07-10.071c0.17,0,0.342,0.005,0.521,0.016
		C11.83,6.424,19.187,0,28.003,0c7.181,0,13.649,4.411,16.313,11.047c0.99-0.253,2.006-0.381,3.029-0.381
		c6.76,0,12.26,5.501,12.26,12.262C59.605,29.688,54.106,35.188,47.346,35.188z"/>
	<g id="XMLID_121_">
		<path id="XMLID_132_" d="M37,26.387H22.367c-0.414,0-0.75-0.336-0.75-0.75c0-0.414,0.336-0.75,0.75-0.75H37
			c0.414,0,0.75,0.336,0.75,0.75C37.75,26.051,37.414,26.387,37,26.387z"/>
		<g id="XMLID_129_">
			<path id="XMLID_131_" d="M36.133,37.909H11.512c-0.414,0-0.75-0.336-0.75-0.75c0-0.414,0.336-0.75,0.75-0.75h24.621
				c0.414,0,0.75,0.336,0.75,0.75C36.883,37.573,36.547,37.909,36.133,37.909z"/>
			<path id="XMLID_130_" d="M43.497,37.909h-4.136c-0.414,0-0.75-0.336-0.75-0.75c0-0.414,0.336-0.75,0.75-0.75h4.136
				c0.414,0,0.75,0.336,0.75,0.75C44.247,37.573,43.911,37.909,43.497,37.909z"/>
		</g>
		<path id="XMLID_128_" d="M34.352,49.431h-10.8c-0.414,0-0.75-0.336-0.75-0.75c0-0.414,0.336-0.75,0.75-0.75h10.8
			c0.414,0,0.75,0.336,0.75,0.75C35.102,49.095,34.766,49.431,34.352,49.431z"/>
		<g id="XMLID_125_">
			<path id="XMLID_127_" d="M46.848,43.67H28.078c-0.414,0-0.75-0.336-0.75-0.75s0.336-0.75,0.75-0.75h18.769
				c0.414,0,0.75,0.336,0.75,0.75S47.262,43.67,46.848,43.67z"/>
			<path id="XMLID_126_" d="M24.545,43.67h-8.138c-0.414,0-0.75-0.336-0.75-0.75s0.336-0.75,0.75-0.75h8.138
				c0.414,0,0.75,0.336,0.75,0.75S24.959,43.67,24.545,43.67z"/>
		</g>
		<g id="XMLID_122_">
			<path id="XMLID_124_" d="M46.848,32.147h-13.33c-0.414,0-0.75-0.336-0.75-0.75c0-0.414,0.336-0.75,0.75-0.75h13.33
				c0.414,0,0.75,0.336,0.75,0.75C47.598,31.811,47.262,32.147,46.848,32.147z"/>
			<path id="XMLID_123_" d="M29.684,32.148H17.418c-0.414,0-0.75-0.336-0.75-0.75c0-0.414,0.336-0.75,0.75-0.75h12.266
				c0.414,0,0.75,0.336,0.75,0.75C30.434,31.813,30.098,32.148,29.684,32.148z"/>
		</g>
	</g>
</g>
<g id="Ebene_1">
</g>
</svg>
