<?xml version="1.0" encoding="iso-8859-1"?>
<!-- Generator: Adobe Illustrator 19.0.0, SVG Export Plug-In . SVG Version: 6.00 Build 0)  -->
<svg version="1.1" xmlns="http://www.w3.org/2000/svg" xmlns:xlink="http://www.w3.org/1999/xlink" x="0px" y="0px"
	 viewBox="0 0 59.607 54.175" style="enable-background:new 0 0 59.607 54.175;" xml:space="preserve">
<g id="sleet">
	<path id="XMLID_108_" d="M47.348,35.188c-0.414,0-0.75-0.336-0.75-0.75c0-0.414,0.336-0.75,0.75-0.75
		c5.933,0,10.76-4.827,10.76-10.76c0-5.934-4.827-10.762-10.76-10.762c-1.107,0-2.203,0.17-3.259,0.506l-0.691,0.22l-0.243-0.684
		C40.875,5.804,34.787,1.5,28.004,1.5c-8.292,0-15.174,6.213-16.01,14.452l-0.077,0.766l-0.763-0.097
		c-0.411-0.052-0.755-0.076-1.082-0.076c-4.727,0-8.572,3.845-8.572,8.571c0,4.726,3.846,8.571,8.572,8.571
		c0.414,0,0.75,0.336,0.75,0.75c0,0.414-0.336,0.75-0.75,0.75C4.518,35.188,0,30.67,0,25.116s4.518-10.071,10.072-10.071
		c0.17,0,0.341,0.005,0.52,0.016C11.831,6.424,19.189,0,28.004,0c7.181,0,13.649,4.41,16.314,11.046
		c0.989-0.252,2.006-0.38,3.029-0.38c6.76,0,12.26,5.501,12.26,12.262C59.607,29.688,54.107,35.188,47.348,35.188z"/>
	<g id="XMLID_101_">
		<path id="XMLID_105_" d="M29.668,34.393c-2.035,0-3.512-1.497-3.512-3.561c0-1.937,2.624-5.309,2.924-5.688l0.588-0.743
			l0.588,0.744c0.3,0.378,2.922,3.75,2.922,5.687C33.178,32.896,31.702,34.393,29.668,34.393z M29.668,26.86
			c-0.94,1.314-2.012,3.095-2.012,3.972c0,1.424,1.011,2.061,2.012,2.061c1,0,2.01-0.637,2.01-2.061
			C31.678,29.954,30.607,28.173,29.668,26.86z"/>
		<path id="XMLID_102_" d="M25.486,54.175c-2.57,0-4.436-1.895-4.436-4.504c0-2.5,3.453-6.941,3.847-7.44l0.589-0.744l0.588,0.744
			c0.394,0.498,3.85,4.94,3.85,7.44C29.924,52.28,28.058,54.175,25.486,54.175z M25.486,43.938
			c-1.318,1.805-2.936,4.442-2.936,5.733c0,1.768,1.207,3.004,2.936,3.004c1.729,0,2.938-1.235,2.938-3.004
			C28.424,48.38,26.806,45.742,25.486,43.938z"/>
	</g>
	<g id="XMLID_98_">
		<path id="XMLID_100_" d="M21.511,34.418c-0.207-0.357-0.664-0.482-1.024-0.274l-2.063,1.19v-2.381c0-0.414-0.336-0.75-0.75-0.75
			c-0.414,0-0.75,0.336-0.75,0.75v2.38l-2.061-1.189c-0.36-0.208-0.818-0.083-1.024,0.274c-0.207,0.358-0.084,0.817,0.274,1.024
			l2.062,1.19l-2.062,1.19c-0.358,0.207-0.481,0.666-0.274,1.024c0.139,0.24,0.391,0.375,0.65,0.375
			c0.127,0,0.256-0.032,0.374-0.101l2.061-1.189v2.38c0,0.414,0.336,0.75,0.75,0.75c0.414,0,0.75-0.336,0.75-0.75v-2.381l2.063,1.19
			c0.118,0.068,0.247,0.101,0.374,0.101c0.26,0,0.512-0.135,0.65-0.375c0.207-0.358,0.084-0.817-0.274-1.024l-2.062-1.19l2.062-1.19
			C21.595,35.235,21.718,34.776,21.511,34.418z"/>
		<path id="XMLID_99_" d="M44.328,44.36l-4.16-2.402l4.16-2.402c0.358-0.207,0.481-0.666,0.274-1.024
			c-0.206-0.357-0.664-0.482-1.024-0.274l-4.16,2.402v-4.805c0-0.414-0.336-0.75-0.75-0.75c-0.414,0-0.75,0.336-0.75,0.75v4.805
			l-4.16-2.402c-0.36-0.208-0.817-0.083-1.024,0.274c-0.207,0.358-0.084,0.817,0.274,1.024l4.16,2.402l-4.16,2.402
			c-0.358,0.207-0.482,0.666-0.274,1.024c0.139,0.24,0.391,0.375,0.65,0.375c0.127,0,0.256-0.032,0.374-0.101l4.16-2.402v4.805
			c0,0.414,0.336,0.75,0.75,0.75c0.414,0,0.75-0.336,0.75-0.75v-4.805l4.16,2.402c0.118,0.068,0.247,0.101,0.374,0.101
			c0.26,0,0.512-0.135,0.65-0.375C44.809,45.026,44.687,44.567,44.328,44.36z"/>
	</g>
</g>
<g id="Ebene_1">
</g>
</svg>
