<?xml version="1.0" encoding="iso-8859-1"?>
<!-- Generator: Adobe Illustrator 19.0.0, SVG Export Plug-In . SVG Version: 6.00 Build 0)  -->
<svg version="1.1" xmlns="http://www.w3.org/2000/svg" xmlns:xlink="http://www.w3.org/1999/xlink" x="0px" y="0px"
	 viewBox="0 0 59.605 46.685" style="enable-background:new 0 0 59.605 46.685;" xml:space="preserve">
<g id="snow">
	<path id="XMLID_92_" d="M47.346,35.188h-3.734c-0.414,0-0.75-0.336-0.75-0.75c0-0.414,0.336-0.75,0.75-0.75h3.734
		c5.933,0,10.76-4.827,10.76-10.76c0-5.934-4.827-10.762-10.76-10.762c-1.106,0-2.203,0.17-3.259,0.506l-0.691,0.22l-0.243-0.684
		C40.875,5.804,34.786,1.5,28.003,1.5c-8.293,0-15.175,6.213-16.01,14.452l-0.077,0.766l-0.763-0.097
		c-0.412-0.052-0.755-0.076-1.083-0.076c-4.726,0-8.57,3.845-8.57,8.571c0,4.726,3.845,8.571,8.57,8.571h4.041
		c0.414,0,0.75,0.336,0.75,0.75c0,0.414-0.336,0.75-0.75,0.75H10.07C4.518,35.188,0,30.67,0,25.116s4.518-10.071,10.07-10.071
		c0.17,0,0.342,0.005,0.521,0.016C11.83,6.424,19.187,0,28.003,0c7.181,0,13.649,4.411,16.313,11.047
		c0.99-0.253,2.006-0.381,3.029-0.381c6.76,0,12.26,5.501,12.26,12.262C59.605,29.688,54.106,35.188,47.346,35.188z"/>
	<g id="XMLID_89_">
		<path id="XMLID_91_" d="M39.499,42.233l-4.162-2.402l4.161-2.402c0.359-0.207,0.481-0.666,0.274-1.024
			c-0.206-0.358-0.667-0.482-1.024-0.274l-4.16,2.402v-4.805c0-0.414-0.336-0.75-0.75-0.75c-0.414,0-0.75,0.336-0.75,0.75v4.805
			l-4.16-2.402c-0.358-0.208-0.817-0.084-1.024,0.274c-0.207,0.358-0.085,0.817,0.274,1.024l4.161,2.402l-4.162,2.402
			c-0.359,0.207-0.481,0.666-0.274,1.024c0.139,0.24,0.391,0.375,0.65,0.375c0.127,0,0.256-0.032,0.375-0.101l4.161-2.402v4.805
			c0,0.414,0.336,0.75,0.75,0.75c0.414,0,0.75-0.336,0.75-0.75V41.13l4.161,2.402c0.118,0.068,0.247,0.101,0.375,0.101
			c0.259,0,0.511-0.135,0.65-0.375C39.98,42.899,39.858,42.44,39.499,42.233z"/>
		<path id="XMLID_90_" d="M26.519,31.947l-2.062-1.19l2.061-1.19c0.359-0.207,0.482-0.666,0.274-1.024
			c-0.207-0.358-0.666-0.483-1.024-0.274l-2.061,1.191v-2.381c0-0.414-0.336-0.75-0.75-0.75c-0.414,0-0.75,0.336-0.75,0.75v2.38
			l-2.061-1.189c-0.358-0.208-0.818-0.084-1.024,0.274c-0.207,0.358-0.084,0.817,0.274,1.024l2.061,1.19l-2.062,1.19
			c-0.359,0.207-0.482,0.666-0.274,1.024c0.139,0.24,0.391,0.375,0.65,0.375c0.127,0,0.256-0.032,0.375-0.101l2.062-1.19v2.381
			c0,0.414,0.336,0.75,0.75,0.75c0.414,0,0.75-0.336,0.75-0.75v-2.381l2.063,1.19c0.118,0.068,0.247,0.101,0.374,0.101
			c0.259,0,0.511-0.135,0.65-0.375C27,32.613,26.877,32.154,26.519,31.947z"/>
	</g>
</g>
<g id="Ebene_1">
</g>
</svg>
