<?xml version="1.0" encoding="iso-8859-1"?>
<!-- Generator: Adobe Illustrator 19.0.0, SVG Export Plug-In . SVG Version: 6.00 Build 0)  -->
<svg version="1.1" xmlns="http://www.w3.org/2000/svg" xmlns:xlink="http://www.w3.org/1999/xlink" x="0px" y="0px"
	 viewBox="0 0 59.485 58.602" style="enable-background:new 0 0 59.485 58.602;" xml:space="preserve">
<g id="sunny">
	<g id="XMLID_2_">
		<path id="XMLID_12_" d="M29.743,41.778c-7.22,0-13.094-5.996-13.094-13.365c0-7.369,5.874-13.363,13.094-13.363
			c7.219,0,13.093,5.995,13.093,13.363C42.836,35.782,36.963,41.778,29.743,41.778z M29.743,16.549
			c-6.393,0-11.594,5.322-11.594,11.863c0,6.542,5.201,11.865,11.594,11.865c6.392,0,11.593-5.323,11.593-11.865
			C41.336,21.871,36.135,16.549,29.743,16.549z"/>
		<path id="XMLID_11_" d="M29.743,58.602c-0.414,0-0.75-0.335-0.75-0.75V46.395c0-0.414,0.336-0.75,0.75-0.75
			c0.414,0,0.75,0.336,0.75,0.75v11.458C30.493,58.267,30.157,58.602,29.743,58.602z"/>
		<path id="XMLID_10_" d="M48.667,51.714c-0.214,0-0.427-0.091-0.575-0.268l-7.365-8.776c-0.266-0.317-0.225-0.79,0.093-1.057
			c0.316-0.267,0.79-0.224,1.057,0.093l7.365,8.776c0.266,0.317,0.225,0.79-0.093,1.057C49.008,51.657,48.837,51.714,48.667,51.714z
			"/>
		<path id="XMLID_9_" d="M58.736,34.274c-0.044,0-0.087-0.003-0.131-0.011L47.32,32.274c-0.408-0.072-0.68-0.461-0.608-0.869
			c0.072-0.408,0.46-0.681,0.869-0.608l11.284,1.988c0.408,0.072,0.68,0.461,0.608,0.869C59.409,34.018,59.092,34.274,58.736,34.274
			z"/>
		<path id="XMLID_8_" d="M45.315,20.172c-0.259,0-0.511-0.134-0.65-0.375c-0.207-0.359-0.084-0.817,0.274-1.024l9.922-5.73
			c0.358-0.207,0.817-0.085,1.024,0.274c0.207,0.359,0.084,0.817-0.274,1.024l-9.922,5.73C45.571,20.14,45.443,20.172,45.315,20.172
			z"/>
		<path id="XMLID_7_" d="M35.891,12.266c-0.086,0-0.172-0.015-0.256-0.045c-0.39-0.142-0.59-0.572-0.448-0.961l3.919-10.767
			c0.142-0.39,0.575-0.588,0.961-0.448c0.39,0.142,0.59,0.572,0.448,0.961l-3.919,10.767C36.485,12.077,36.197,12.266,35.891,12.266
			z"/>
		<path id="XMLID_6_" d="M23.592,12.266c-0.306,0-0.594-0.189-0.704-0.493l-3.92-10.766c-0.142-0.39,0.059-0.82,0.448-0.961
			c0.39-0.141,0.819,0.059,0.961,0.448l3.92,10.766c0.142,0.39-0.059,0.82-0.448,0.961C23.764,12.251,23.677,12.266,23.592,12.266z"
			/>
		<path id="XMLID_5_" d="M14.17,20.172c-0.127,0-0.256-0.032-0.374-0.1l-9.924-5.727c-0.358-0.207-0.481-0.666-0.274-1.024
			c0.207-0.359,0.665-0.482,1.024-0.274l9.924,5.727c0.358,0.207,0.481,0.666,0.274,1.024C14.681,20.038,14.429,20.172,14.17,20.172
			z"/>
		<path id="XMLID_4_" d="M0.749,34.278c-0.357,0-0.673-0.256-0.738-0.62c-0.072-0.408,0.201-0.797,0.608-0.869l11.284-1.992
			c0.408-0.072,0.797,0.201,0.869,0.608c0.072,0.408-0.201,0.797-0.608,0.869L0.881,34.267C0.837,34.274,0.793,34.278,0.749,34.278z
			"/>
		<path id="XMLID_3_" d="M10.82,51.717c-0.17,0-0.341-0.058-0.481-0.175c-0.317-0.266-0.359-0.739-0.093-1.057l7.363-8.779
			c0.266-0.316,0.738-0.359,1.057-0.093c0.317,0.266,0.359,0.739,0.093,1.057l-7.363,8.779
			C11.247,51.626,11.034,51.717,10.82,51.717z"/>
	</g>
</g>
<g id="Ebene_1">
</g>
</svg>
