<?xml version="1.0" encoding="iso-8859-1"?>
<!-- Generator: Adobe Illustrator 19.0.0, SVG Export Plug-In . SVG Version: 6.00 Build 0)  -->
<svg version="1.1" xmlns="http://www.w3.org/2000/svg" xmlns:xlink="http://www.w3.org/1999/xlink" x="0px" y="0px"
	 viewBox="0 0 77.764 64.837" style="enable-background:new 0 0 77.764 64.837;" xml:space="preserve">
<g id="sunshower">
	<g id="XMLID_50_">
		<path id="XMLID_54_" d="M40.947,48.581l-0.588,0.744c-0.3,0.378-2.924,3.75-2.924,5.687c0,2.063,1.477,3.56,3.512,3.56
			c2.034,0,3.51-1.498,3.51-3.56c0-1.936-2.622-5.309-2.922-5.687L40.947,48.581z M40.947,57.072c-1.001,0-2.012-0.637-2.012-2.06
			c0-0.876,1.071-2.658,2.012-3.972c0.939,1.313,2.01,3.094,2.01,3.972C42.957,56.435,41.947,57.072,40.947,57.072z"/>
		<path id="XMLID_51_" d="M53.151,50.604l-0.589-0.744l-0.589,0.744c-0.474,0.6-4.634,5.949-4.634,8.928
			c0,3.074,2.196,5.305,5.223,5.305c3.026,0,5.223-2.231,5.223-5.305C57.785,56.553,53.625,51.204,53.151,50.604z M52.562,63.337
			c-2.191,0-3.723-1.564-3.723-3.805c0-1.799,2.316-5.318,3.723-7.224c1.406,1.906,3.723,5.425,3.723,7.224
			C56.285,61.772,54.754,63.337,52.562,63.337z"/>
	</g>
	<path id="XMLID_49_" d="M65.504,55.454h-3.734c-0.414,0-0.75-0.336-0.75-0.75c0-0.414,0.336-0.75,0.75-0.75h3.734
		c5.933,0,10.76-4.827,10.76-10.76c0-5.934-4.827-10.762-10.76-10.762c-1.105,0-2.202,0.17-3.26,0.506l-0.69,0.219l-0.243-0.683
		c-2.277-6.405-8.365-10.708-15.148-10.708c-8.294,0-15.176,6.213-16.01,14.453l-0.077,0.765l-0.763-0.096
		c-0.411-0.052-0.756-0.076-1.084-0.076c-4.726,0-8.57,3.845-8.57,8.571c0,4.726,3.845,8.571,8.57,8.571h4.041
		c0.414,0,0.75,0.336,0.75,0.75c0,0.414-0.336,0.75-0.75,0.75h-4.041c-5.553,0-10.07-4.518-10.07-10.071
		c0-5.553,4.518-10.071,10.07-10.071c0.17,0,0.343,0.005,0.521,0.016c1.237-8.638,8.596-15.061,17.412-15.061
		c7.182,0,13.649,4.411,16.312,11.046c0.991-0.252,2.007-0.38,3.029-0.38c6.76,0,12.26,5.5,12.26,12.262
		C77.764,49.954,72.264,55.454,65.504,55.454z"/>
	<g id="XMLID_41_">
		<path id="XMLID_48_" d="M31.719,10.987c-0.085,0-0.172-0.015-0.257-0.045c-0.389-0.142-0.59-0.572-0.448-0.961l3.453-9.487
			c0.143-0.389,0.571-0.589,0.962-0.448c0.389,0.142,0.59,0.572,0.448,0.961l-3.453,9.487
			C32.312,10.798,32.025,10.987,31.719,10.987z"/>
		<path id="XMLID_47_" d="M40.024,17.955c-0.26,0-0.512-0.134-0.65-0.375c-0.207-0.359-0.084-0.817,0.274-1.024l8.744-5.049
			c0.359-0.208,0.818-0.085,1.024,0.274c0.207,0.359,0.084,0.817-0.274,1.024l-8.744,5.049
			C40.28,17.923,40.151,17.955,40.024,17.955z"/>
		<path id="XMLID_46_" d="M20.881,10.987c-0.307,0-0.594-0.189-0.705-0.493l-3.455-9.486c-0.142-0.389,0.06-0.82,0.448-0.961
			c0.392-0.141,0.82,0.059,0.962,0.448l3.455,9.486c0.142,0.389-0.06,0.82-0.448,0.961C21.053,10.972,20.966,10.987,20.881,10.987z"
			/>
		<path id="XMLID_45_" d="M12.575,17.955c-0.127,0-0.256-0.032-0.374-0.101l-8.744-5.046c-0.358-0.207-0.481-0.665-0.274-1.024
			c0.206-0.358,0.664-0.482,1.024-0.274l8.744,5.046c0.358,0.207,0.481,0.665,0.274,1.024
			C13.087,17.821,12.835,17.955,12.575,17.955z"/>
		<path id="XMLID_44_" d="M0.749,30.386c-0.357,0-0.674-0.256-0.737-0.62c-0.072-0.408,0.2-0.797,0.607-0.869l9.945-1.756
			c0.418-0.071,0.798,0.201,0.869,0.608c0.072,0.408-0.2,0.797-0.607,0.869l-9.945,1.756C0.836,30.382,0.792,30.386,0.749,30.386z"
			/>
		<path id="XMLID_43_" d="M9.625,45.754c-0.171,0-0.342-0.058-0.482-0.175c-0.317-0.266-0.358-0.739-0.092-1.057l6.488-7.736
			c0.266-0.317,0.739-0.358,1.057-0.093c0.317,0.266,0.358,0.739,0.092,1.057l-6.488,7.736C10.052,45.662,9.839,45.754,9.625,45.754
			z"/>
		<path id="XMLID_42_" d="M20.265,35.125c-0.146,0-0.293-0.042-0.422-0.13c-3.236-2.209-5.169-5.898-5.169-9.867
			c0-6.542,5.216-11.865,11.627-11.865c4.11,0,7.957,2.259,10.038,5.896c0.205,0.36,0.081,0.818-0.279,1.024
			c-0.36,0.206-0.818,0.08-1.024-0.278c-1.813-3.171-5.161-5.141-8.735-5.141c-5.584,0-10.127,4.65-10.127,10.365
			c0,3.473,1.688,6.698,4.515,8.627c0.342,0.234,0.43,0.7,0.196,1.042C20.74,35.011,20.505,35.125,20.265,35.125z"/>
	</g>
</g>
<g id="Ebene_1">
</g>
</svg>
