<?xml version="1.0" encoding="iso-8859-1"?>
<!-- Generator: Adobe Illustrator 19.0.0, SVG Export Plug-In . SVG Version: 6.00 Build 0)  -->
<svg version="1.1" xmlns="http://www.w3.org/2000/svg" xmlns:xlink="http://www.w3.org/1999/xlink" x="0px" y="0px"
	 viewBox="0 0 59.607 62.418" style="enable-background:new 0 0 59.607 62.418;" xml:space="preserve">
<g id="thunderstorm_x5F_rainy">
	<g id="XMLID_165_">
		<path id="XMLID_169_" d="M41.16,57.859c-2.57,0-4.436-1.894-4.436-4.504c0-2.501,3.453-6.941,3.848-7.439l0.588-0.744l0.588,0.744
			c0.395,0.498,3.848,4.938,3.848,7.439C45.596,55.965,43.73,57.859,41.16,57.859z M41.16,47.622
			c-1.318,1.805-2.936,4.442-2.936,5.733c0,1.769,1.207,3.004,2.936,3.004c1.728,0,2.936-1.235,2.936-3.004
			C44.096,52.063,42.479,49.426,41.16,47.622z"/>
		<path id="XMLID_166_" d="M16.424,50.369c-2.057,0-3.549-1.514-3.549-3.6c0-1.96,2.657-5.377,2.961-5.76l0.588-0.744l0.588,0.744
			c0.304,0.383,2.961,3.8,2.961,5.76C19.973,48.855,18.48,50.369,16.424,50.369z M16.424,42.725
			c-0.955,1.335-2.049,3.151-2.049,4.045c0,1.45,1.029,2.1,2.049,2.1s2.049-0.649,2.049-2.1
			C18.473,45.876,17.379,44.06,16.424,42.725z"/>
	</g>
	<path id="XMLID_162_" d="M24.038,62.418l3.417-23.148h-6.333l3.22-22h12.052l-5.877,16.207h8.324L24.038,62.418z M22.858,37.77
		h6.335l-2.341,15.852l9.537-18.645h-8.012l5.877-16.207h-8.616L22.858,37.77z"/>
	<path id="XMLID_161_" d="M47.348,35.188h-3.734c-0.414,0-0.75-0.336-0.75-0.75c0-0.414,0.336-0.75,0.75-0.75h3.734
		c5.933,0,10.76-4.827,10.76-10.76c0-5.934-4.827-10.762-10.76-10.762c-1.107,0-2.203,0.17-3.259,0.506l-0.691,0.22l-0.243-0.684
		C40.875,5.804,34.787,1.5,28.004,1.5c-8.292,0-15.175,6.213-16.01,14.452l-0.077,0.766l-0.763-0.097
		c-0.411-0.052-0.755-0.076-1.082-0.076c-4.727,0-8.572,3.845-8.572,8.57c0,4.727,3.846,8.572,8.572,8.572h4.041
		c0.414,0,0.75,0.336,0.75,0.75c0,0.414-0.336,0.75-0.75,0.75h-4.041C4.518,35.188,0,30.669,0,25.115
		c0-5.553,4.518-10.07,10.072-10.07c0.17,0,0.341,0.005,0.521,0.016C11.831,6.424,19.189,0,28.004,0
		c7.181,0,13.649,4.41,16.314,11.046c0.989-0.252,2.006-0.38,3.029-0.38c6.76,0,12.26,5.501,12.26,12.262
		C59.607,29.688,54.107,35.188,47.348,35.188z"/>
</g>
<g id="Ebene_1">
</g>
</svg>
