<?xml version="1.0" encoding="iso-8859-1"?>
<!-- Generator: Adobe Illustrator 19.0.0, SVG Export Plug-In . SVG Version: 6.00 Build 0)  -->
<svg version="1.1" xmlns="http://www.w3.org/2000/svg" xmlns:xlink="http://www.w3.org/1999/xlink" x="0px" y="0px"
	 viewBox="0 0 59.607 62.418" style="enable-background:new 0 0 59.607 62.418;" xml:space="preserve">
<g id="thunderstorm">
	<path id="XMLID_84_" d="M23.329,62.418l3.417-23.148h-6.333l3.22-22h12.052l-5.877,16.207h8.324L23.329,62.418z M22.149,37.77
		h6.335l-2.341,15.852l9.537-18.645h-8.012l5.877-16.207H24.93L22.149,37.77z"/>
	<path id="XMLID_83_" d="M47.348,35.188h-3.734c-0.414,0-0.75-0.336-0.75-0.75c0-0.414,0.336-0.75,0.75-0.75h3.734
		c5.933,0,10.76-4.827,10.76-10.76c0-5.934-4.827-10.762-10.76-10.762c-1.107,0-2.203,0.17-3.259,0.506l-0.691,0.22l-0.243-0.684
		C40.875,5.804,34.787,1.5,28.004,1.5c-8.292,0-15.175,6.213-16.01,14.452l-0.077,0.766l-0.763-0.097
		c-0.411-0.052-0.755-0.076-1.082-0.076c-4.727,0-8.572,3.845-8.572,8.57c0,4.727,3.846,8.572,8.572,8.572h4.041
		c0.414,0,0.75,0.336,0.75,0.75c0,0.414-0.336,0.75-0.75,0.75h-4.041C4.518,35.188,0,30.669,0,25.115
		c0-5.553,4.518-10.07,10.072-10.07c0.17,0,0.341,0.005,0.52,0.016C11.831,6.424,19.189,0,28.004,0
		c7.181,0,13.649,4.41,16.314,11.046c0.989-0.252,2.006-0.38,3.029-0.38c6.76,0,12.26,5.501,12.26,12.262
		C59.607,29.688,54.107,35.188,47.348,35.188z"/>
</g>
<g id="Ebene_1">
</g>
</svg>
