<?xml version="1.0" encoding="iso-8859-1"?>
<!-- Generator: Adobe Illustrator 19.0.0, SVG Export Plug-In . SVG Version: 6.00 Build 0)  -->
<svg version="1.1" xmlns="http://www.w3.org/2000/svg" xmlns:xlink="http://www.w3.org/1999/xlink" x="0px" y="0px"
	 viewBox="0 0 51.32 46.176" style="enable-background:new 0 0 51.32 46.176;" xml:space="preserve">
<g id="warning_x5F_sign">
	<path id="XMLID_184_" d="M44.391,46.176H6.93c-2.939,0-5.157-1.037-6.244-2.919c-1.087-1.883-0.876-4.321,0.594-6.867L20.01,3.948
		C21.479,1.402,23.485,0,25.659,0s4.18,1.402,5.649,3.948L50.041,36.39c1.47,2.546,1.681,4.984,0.594,6.867
		C49.548,45.139,47.33,46.176,44.391,46.176z M25.659,1.5c-1.615,0-3.16,1.136-4.351,3.198L2.578,37.14
		c-1.19,2.061-1.401,3.968-0.594,5.367c0.809,1.398,2.564,2.169,4.945,2.169h37.461c2.381,0,4.137-0.771,4.945-2.169
		c0.808-1.399,0.597-3.306-0.594-5.367L30.01,4.698C28.819,2.636,27.274,1.5,25.659,1.5z"/>
	<g id="XMLID_177_">
		<path id="XMLID_181_" d="M25.659,32.493l-0.692-1.667c-0.159-0.384-3.902-9.444-3.902-13.492c0-4.841,2.499-5.856,4.595-5.856
			c2.098,0,4.598,1.016,4.598,5.856c0,4.049-3.746,13.108-3.905,13.492L25.659,32.493z M25.659,12.978
			c-1.328,0-3.095,0.451-3.095,4.356c0,2.742,2.002,8.324,3.095,11.168c1.094-2.844,3.098-8.428,3.098-11.168
			C28.757,13.429,26.989,12.978,25.659,12.978z"/>
		<path id="XMLID_178_" d="M25.661,40.656c-2.198,0-3.986-1.788-3.986-3.985c0-2.198,1.788-3.986,3.986-3.986
			c2.197,0,3.985,1.788,3.985,3.986C29.646,38.868,27.858,40.656,25.661,40.656z M25.661,34.185c-1.371,0-2.486,1.115-2.486,2.486
			c0,1.37,1.115,2.485,2.486,2.485c1.37,0,2.485-1.115,2.485-2.485C28.146,35.3,27.031,34.185,25.661,34.185z"/>
	</g>
</g>
<g id="Ebene_1">
</g>
</svg>
