<?xml version="1.0" encoding="iso-8859-1"?>
<!-- Generator: Adobe Illustrator 19.0.0, SVG Export Plug-In . SVG Version: 6.00 Build 0)  -->
<svg version="1.1" xmlns="http://www.w3.org/2000/svg" xmlns:xlink="http://www.w3.org/1999/xlink" x="0px" y="0px"
	 viewBox="0 0 66.551 45.951" style="enable-background:new 0 0 66.551 45.951;" xml:space="preserve">
<g id="windy">
	<g id="XMLID_137_">
		<path id="XMLID_140_" d="M45.432,20.516H13.322c-0.414,0-0.75-0.336-0.75-0.75c0-0.414,0.336-0.75,0.75-0.75h32.109
			c4.032,0,7.313-3.359,7.313-7.489c0-4.13-3.28-7.489-7.313-7.489c-2.908,0-5.54,1.767-6.704,4.501
			c-0.164,0.381-0.607,0.555-0.984,0.397c-0.381-0.163-0.559-0.604-0.396-0.984c1.401-3.288,4.574-5.413,8.085-5.413
			c4.859,0,8.813,4.032,8.813,8.989C54.244,16.483,50.291,20.516,45.432,20.516z"/>
		<path id="XMLID_139_" d="M47.125,45.951c-0.414,0-0.75-0.336-0.75-0.75c0-0.414,0.336-0.75,0.75-0.75
			c3.137,0,5.689-2.615,5.689-5.829c0-3.215-2.553-5.831-5.689-5.831H7.17c-0.414,0-0.75-0.336-0.75-0.75
			c0-0.414,0.336-0.75,0.75-0.75h39.955c3.964,0,7.189,3.289,7.189,7.331C54.314,42.663,51.089,45.951,47.125,45.951z"/>
		<path id="XMLID_138_" d="M53.494,26.654H0.75c-0.414,0-0.75-0.336-0.75-0.75s0.336-0.75,0.75-0.75h52.744
			c6.372,0,11.557-5.306,11.557-11.828c0-6.521-5.184-11.826-11.557-11.826c-0.414,0-0.75-0.336-0.75-0.75S53.08,0,53.494,0
			c7.199,0,13.057,5.978,13.057,13.326C66.551,20.676,60.693,26.654,53.494,26.654z"/>
	</g>
</g>
<g id="Ebene_1">
</g>
</svg>
