<?xml version="1.0" standalone="no"?>
<!DOCTYPE svg PUBLIC "-//W3C//DTD SVG 1.1//EN" "http://www.w3.org/Graphics/SVG/1.1/DTD/svg11.dtd">
<svg xmlns="http://www.w3.org/2000/svg">
<metadata>Generated by Fontastic.me</metadata>
<defs>
<font id="celsius" horiz-adv-x="512">
<font-face font-family="celsius" units-per-em="512" ascent="480" descent="-32"/>
<missing-glyph horiz-adv-x="512" />

<glyph glyph-name="cloudy" unicode="&#97;" d="M182 350c0 0-1 1-1 1-3 1-4 3-3 5l20 54c0 2 3 3 5 2 2-1 3-3 3-5l-20-54c-1-1-2-3-4-3z m47-39c-1 0-3 1-4 2-1 2 0 5 2 6l49 29c2 1 5 0 6-2 1-2 0-5-2-6l-49-28c-1-1-1-1-2-1z m-108 39c-2 0-3 2-4 3l-20 54c0 2 1 4 3 5 2 1 5 0 5-2l20-54c1-2 0-5-3-5 0 0-1-1-1-1z m-47-39c-1 0-1 0-2 1l-49 28c-2 1-3 4-2 6 1 2 4 3 6 1l49-28c2-1 3-4 2-6-1-1-2-2-4-2z m-67-70c-2 0-3 1-4 3 0 3 1 5 4 5l56 10c2 1 4-1 5-3 0-2-1-5-4-5l-56-10c0 0 0 0-1 0z m50-87c-1 0-1 1-2 1-2 2-2 4-1 6l37 44c1 2 4 2 6 0 2-1 2-4 0-6l-36-43c-1-1-2-2-4-2z m60 60c0 0-1 0-2 1-18 12-29 33-29 56 0 37 29 67 66 67 23 0 44-13 56-34 1-2 1-4-1-5-2-2-5-1-6 1-10 18-29 29-49 29-32 0-58-26-58-58 0-20 10-38 26-49 2-1 2-4 1-6-1-1-2-2-4-2z m349-29l-7 0c-2 0-4 2-4 5 0 2 2 4 4 4l7 0c19 0 34 15 34 34 0 18-15 34-34 34-1 0-2 0-4-1l-4 0-1 4c-3 33-31 58-64 58-23 0-43-11-55-31-1-2-4-2-6-1-2 1-3 4-1 6 13 22 36 35 62 35 36 0 67-26 72-62 24 1 44-18 44-42 0-24-19-43-43-43z m-93-85l-211 0c-31 0-56 25-56 56 0 32 25 57 56 57 1 0 2 0 3 0 7 49 49 85 99 85 40 0 77-25 92-62 5 1 11 2 17 2 38 0 69-31 69-69 0-38-31-69-69-69z m-211 105c-26 0-48-22-48-49 0-26 22-48 48-48l211 0c33 0 60 27 60 61 0 33-27 60-60 60-7 0-13-1-19-2l-4-2-1 4c-13 36-47 61-85 61-47 0-86-35-91-82l0-4-4 0c-3 1-5 1-7 1z"/>
<glyph glyph-name="heavy-clouds" unicode="&#98;" d="M458 217l-9 0c-3 0-6 3-6 6 0 3 3 5 6 5l9 0c24 0 43 20 43 43 0 24-19 43-43 43-2 0-4 0-5 0l-6-1 0 6c-5 42-40 74-82 74-29 0-55-15-70-40-2-2-5-3-8-1-2 1-3 4-1 7 17 28 46 44 79 44 46 0 85-33 92-78 0 0 1 0 1 0 30 0 54-24 54-54 0-29-24-54-54-54z m-119-108l-267 0c-40 0-72 32-72 72 0 39 32 72 72 72 1 0 3 0 4 0 9 62 61 108 125 108 51 0 97-32 116-80 8 2 15 3 22 3 49 0 88-39 88-88 0-48-39-87-88-87z m-267 133c-34 0-61-27-61-61 0-34 27-62 61-62l267 0c43 0 77 35 77 77 0 43-34 77-77 77-8 0-16-1-23-3l-5-2-2 5c-16 46-60 77-108 77-60 0-109-45-115-104l-1-5-5 1c-3 0-6 0-8 0z"/>
<glyph glyph-name="heavy-rain" unicode="&#99;" d="M262 175c-17 0-30 13-30 30 0 17 23 45 25 49l5 6 5-6c3-4 25-32 25-49 0-17-12-30-30-30z m0 64c-8-11-17-26-17-34 0-12 9-17 17-17 9 0 17 5 17 17 0 8-9 23-17 34z m-89-133c-21 0-37 16-37 38 0 21 29 59 32 63l5 7 5-7c4-4 33-42 33-63 0-22-16-38-38-38z m0 87c-11-16-25-38-25-49 0-15 11-26 25-26 15 0 25 11 25 26 0 11-13 33-25 49z m161-142c-26 0-45 19-45 45 0 26 35 71 40 76l5 7 5-7c4-5 39-50 39-76 0-26-19-45-44-45z m0 107c-12-16-32-46-32-62 0-19 13-32 32-32 18 0 31 13 31 32 0 16-20 46-31 62z m71 3c-3 0-6 3-6 7 0 3 3 6 6 6 51 0 92 41 92 92 0 50-41 91-92 91-9 0-18-1-27-4l-6-2-2 6c-20 54-72 91-129 91-71 0-129-53-137-123l0-7-7 1c-3 1-6 1-9 1-40 0-73-33-73-73 0-40 33-73 73-73 4 0 6-3 6-6 0-4-2-7-6-7-47 0-86 39-86 86 0 47 39 86 86 86 1 0 3 0 4 0 11 73 74 128 149 128 61 0 116-38 139-94 8 2 17 3 25 3 58 0 105-47 105-104 0-58-47-105-105-105z"/>
<glyph glyph-name="heavy-snow" unicode="&#100;" d="M406 164c-3 0-6 3-6 6 0 4 3 6 6 6 51 0 92 42 92 93 0 50-41 92-92 92-9 0-19-2-28-4l-6-2-2 5c-19 55-71 92-129 92-71 0-130-53-138-124l0-6-7 1c-3 0-6 0-9 0-41 0-73-33-73-73 0-41 32-74 73-74 4 0 6-2 6-6 0-3-2-6-6-6-48 0-86 38-86 86 0 47 38 86 86 86 1 0 3 0 4 0 11 74 74 129 150 129 61 0 117-38 139-95 9 3 18 4 26 4 58 0 105-47 105-105 0-58-47-105-105-105z m-26-79l-35 21 35 20c4 2 5 6 3 9-2 3-6 4-9 2l-36-20 0 41c0 3-3 6-6 6-4 0-6-3-6-6l0-41-36 20c-3 2-7 1-9-2-2-3-1-7 2-9l36-20-36-21c-3-2-4-6-2-9 1-2 3-3 6-3 1 0 2 0 3 1l36 21 0-42c0-3 2-6 6-6 3 0 6 3 6 6l0 42 36-21c1-1 2-1 3-1 2 0 5 1 6 3 2 3 1 7-3 9z m-172 23l-28 16 28 16c3 1 4 5 2 8-2 3-6 5-9 3l-27-16 0 32c0 3-3 6-6 6-4 0-7-3-7-6l0-32-27 16c-3 2-7 0-9-3-2-3-1-7 2-8l28-16-28-16c-3-2-4-6-2-9 1-2 3-3 6-3 1 0 2 0 3 1l27 16 0-32c0-3 3-6 7-6 3 0 6 3 6 6l0 32 27-16c1-1 2-1 3-1 3 0 5 1 6 3 2 3 1 7-2 9z m76 71c2 0 5 2 6 4 2 3 1 7-3 8l-17 11 17 10c4 2 5 5 3 9-2 3-6 4-9 2l-18-10 0 20c0 4-3 7-6 7-4 0-6-3-6-7l0-20-18 10c-3 2-7 1-9-2-2-4-1-7 2-9l18-10-18-11c-3-1-4-5-2-8 1-2 3-4 6-4 1 0 2 1 3 1l18 10 0-20c0-3 2-6 6-6 3 0 6 3 6 6l0 20 18-10c1 0 2-1 3-1z"/>
<glyph glyph-name="light-rain" unicode="&#101;" d="M256 77c-26 0-45 19-45 45 0 26 36 72 40 77l5 6 5-6c4-5 40-51 40-77 0-26-19-45-45-45z m0 107c-12-16-32-46-32-62 0-19 13-32 32-32 19 0 32 13 32 32 0 16-20 46-32 62z m150-50l-60 0c-3 0-6 3-6 6 0 4 3 7 6 7l60 0c51 0 92 41 92 92 0 51-41 92-92 92-9 0-19-1-28-4l-6-2-2 6c-19 55-71 91-129 91-71 0-130-53-138-123l0-7-7 1c-3 0-6 1-9 1-40 0-73-33-73-74 0-40 33-73 73-73l78 0c4 0 6-3 6-7 0-3-2-6-6-6l-78 0c-48 0-86 39-86 86 0 48 38 86 86 86 1 0 3 0 4 0 11 74 74 129 150 129 61 0 116-38 139-94 9 2 17 3 26 3 58 0 105-47 105-105 0-58-47-105-105-105z"/>
<glyph glyph-name="light-snow" unicode="&#102;" d="M405 136l-60 0c-3 0-6 3-6 7 0 3 3 6 6 6l60 0c50 0 91 41 91 92 0 50-41 91-91 91-9 0-19-2-28-4l-6-2-2 6c-19 54-71 90-128 90-71 0-129-52-136-122l-1-7-6 1c-4 1-7 1-10 1-40 0-72-33-72-73 0-40 32-73 72-73l78 0c3 0 6-3 6-6 0-4-3-7-6-7l-78 0c-47 0-85 39-85 86 0 47 38 85 85 85 2 0 3 0 5 0 10 74 73 128 148 128 61 0 116-37 138-94 9 3 17 4 26 4 57 0 104-47 104-104 0-58-47-105-104-105z m-101-21l-35 20 35 20c3 2 4 6 2 9-1 3-5 4-8 2l-36-20 0 41c0 3-2 6-6 6-4 0-6-3-6-6l0-41-36 20c-3 2-7 1-8-2-2-3-1-7 2-9l35-20-35-20c-3-2-4-6-2-9 1-2 3-3 5-3 1 0 2 0 3 1l36 20 0-41c0-3 2-6 6-6 4 0 6 3 6 6l0 41 36-20c1-1 2-1 3-1 2 0 4 1 5 3 2 3 1 7-2 9z"/>
<glyph glyph-name="partly-cloudy" unicode="&#103;" d="M209 365c0 0-1 0-1 0-3 1-4 4-3 7l22 61c1 3 4 4 7 3 2-1 3-4 2-6l-22-62c-1-2-3-3-5-3z m54-45c-1 0-3 0-4 2-1 2 0 5 2 7l57 33c2 1 5 0 7-2 1-3 0-6-2-7l-57-33c-1 0-2 0-3 0z m-124 45c-2 0-4 1-5 3l-22 62c-1 2 0 5 3 6 2 1 5 0 6-3l22-61c1-3 0-6-3-7 0 0-1 0-1 0z m-54-45c-1 0-2 0-3 0l-57 33c-2 1-3 4-1 7 1 2 4 3 6 2l57-33c3-2 3-5 2-7-1-2-3-2-4-2z m-77-81c-3 0-5 1-5 4-1 2 1 5 4 5l65 12c2 0 5-1 5-4 1-3-1-5-4-6l-64-11c-1 0-1 0-1 0z m58-100c-2 0-3 0-4 1-2 2-2 5 0 7l42 50c2 2 5 2 7 1 2-2 2-5 1-7l-43-51c-1-1-2-1-3-1z m69 69c-1 0-2 0-3 1-21 14-34 38-34 64 0 43 34 77 76 77 27 0 52-15 65-38 2-3 1-6-1-7-3-1-6 0-7 2-12 21-34 33-57 33-36 0-66-30-66-67 0-23 11-44 30-56 2-2 2-5 1-7-1-1-3-2-4-2z m294-133l-242 0c-37 0-66 30-66 66 0 36 29 66 66 66 1 0 2 0 3 0 8 56 56 98 113 98 47 0 89-29 107-72 6 1 13 2 19 2 44 0 80-36 80-80 0-44-36-80-80-80z m-242 122c-31 0-56-25-56-56 0-31 25-56 56-56l242 0c39 0 70 32 70 70 0 39-31 70-70 70-7 0-14-1-21-3l-4-1-2 4c-15 42-54 70-99 70-54 0-98-41-104-94l0-5-5 0c-3 1-5 1-7 1z"/>
<glyph glyph-name="quarter-moon" unicode="&#104;" d="M262 0c-141 0-256 117-256 261 0 106 62 201 158 242l22 9-9-22c-14-31-20-63-20-97 0-134 106-242 237-242 31 0 61 6 90 18l22 9-10-22c-40-95-132-156-234-156z m-111 476c-77-42-126-124-126-215 0-133 106-242 237-242 87 0 165 48 207 124-24-7-49-11-75-11-141 0-256 117-256 261 0 28 4 56 13 83z"/>
<glyph glyph-name="rain" unicode="&#105;" d="M196 118c-18 0-30 13-30 31 0 17 22 46 25 49l5 6 5-6c2-3 25-32 25-49 0-18-13-31-30-31z m0 65c-8-11-18-26-18-34 0-12 9-18 18-18 8 0 17 6 17 18 0 8-9 23-17 34z m100-118c-26 0-45 19-45 45 0 26 35 72 39 77l6 6 5-6c4-5 39-51 39-77 0-26-18-45-44-45z m0 107c-13-16-32-46-32-62 0-19 13-33 32-33 18 0 31 14 31 33 0 16-19 46-31 62z m111-27l-32 0c-4 0-7 3-7 7 0 3 3 6 7 6l32 0c51 0 92 42 92 92 0 51-41 93-92 93-10 0-19-2-28-4l-6-2-2 6c-20 55-72 92-130 92-72 0-131-54-138-125l-1-6-6 1c-4 0-7 0-9 0-41 0-74-33-74-73 0-41 33-74 74-74l34 0c4 0 7-3 7-6 0-4-3-7-7-7l-34 0c-48 0-87 39-87 87 0 47 39 86 87 86 1 0 2 0 4 0 11 74 74 129 150 129 61 0 117-37 140-94 8 2 17 3 26 3 58 0 105-47 105-106 0-58-47-105-105-105z"/>
<glyph glyph-name="rainy-storm" unicode="&#106;" d="M365 411l-204 0c-4 0-7 3-7 6 0 4 3 7 7 7l204 0c4 0 7-3 7-7 0-3-3-6-7-6z m-12-162l-344 0c-4 0-7 3-7 7 0 4 3 7 7 7l344 0c4 0 7-3 7-7 0-4-3-7-7-7z m103 0l-58 0c-3 0-6 3-6 7 0 4 3 7 6 7l58 0c4 0 7-3 7-7 0-4-3-7-7-7z m-128-161l-151 0c-3 0-6 3-6 7 0 3 3 6 6 6l151 0c4 0 7-3 7-6 0-4-3-7-7-7z m175 81l-262 0c-4 0-7 3-7 6 0 4 3 7 7 7l262 0c4 0 7-3 7-7 0-3-3-6-7-6z m-312 0l-114 0c-3 0-6 3-6 6 0 4 3 7 6 7l114 0c4 0 7-3 7-7 0-3-3-6-7-6z m312 161l-186 0c-4 0-7 3-7 7 0 3 3 6 7 6l186 0c4 0 7-3 7-6 0-4-3-7-7-7z m-240 0l-172 0c-3 0-6 3-6 7 0 3 3 6 6 6l172 0c4 0 7-3 7-6 0-4-3-7-7-7z"/>
<glyph glyph-name="rainy-storm-cloudy" unicode="&#107;" d="M404 167c-3 0-6 3-6 7 0 3 3 6 6 6 51 0 91 41 91 91 0 50-40 91-91 91-9 0-18-1-27-4l-6-2-2 6c-19 54-71 90-128 90-70 0-129-52-136-122l0-6-7 0c-3 1-6 1-9 1-40 0-72-32-72-72 0-40 32-73 72-73 4 0 6-3 6-6 0-4-2-7-6-7-47 0-85 39-85 86 0 47 38 85 85 85 2 0 3 0 4 0 11 73 73 127 148 127 61 0 115-37 138-93 8 2 17 3 25 3 58 0 104-47 104-104 0-57-46-104-104-104z m-87 75l-124 0c-3 0-6 3-6 6 0 4 3 7 6 7l124 0c3 0 6-3 6-7 0-3-3-6-6-6z m-7-98l-209 0c-3 0-6 3-6 7 0 3 3 6 6 6l209 0c3 0 6-3 6-6 0-4-3-7-6-7z m62 0l-35 0c-4 0-6 3-6 7 0 3 2 6 6 6l35 0c3 0 6-3 6-6 0-4-3-7-6-7z m-78-97l-91 0c-3 0-6 3-6 6 0 4 3 7 6 7l91 0c4 0 7-3 7-7 0-3-3-6-7-6z m106 49l-159 0c-3 0-6 3-6 6 0 4 3 6 6 6l159 0c4 0 7-2 7-6 0-3-3-6-7-6z m-188 0l-69 0c-4 0-7 3-7 6 0 4 3 6 7 6l69 0c3 0 6-2 6-6 0-3-3-6-6-6z m188 97l-113 0c-3 0-6 3-6 6 0 4 3 7 6 7l113 0c4 0 7-3 7-7 0-3-3-6-7-6z m-145 0l-104 0c-3 0-6 3-6 6 0 4 3 7 6 7l104 0c4 0 6-3 6-7 0-3-2-6-6-6z"/>
<glyph glyph-name="rainy-storm-sunny" unicode="&#108;" d="M209 381c0 0-1 0-1 1-3 1-4 3-3 6l22 62c1 2 4 4 6 3 3-1 4-4 3-7l-22-61c-1-2-3-4-5-4z m54-45c-1 0-3 1-4 2-1 3-1 6 2 7l57 33c2 1 5 0 6-2 2-2 1-5-1-7l-57-32c-1-1-2-1-3-1z m-124 45c-2 0-4 2-5 4l-23 61c0 3 1 6 3 7 3 1 6-1 7-3l22-62c1-3 0-5-3-6 0-1-1-1-1-1z m-55-45c0 0-1 0-2 1l-57 32c-2 2-3 5-2 7 2 2 5 3 7 2l57-33c2-1 3-4 2-7-1-1-3-2-5-2z m-77-81c-2 0-4 2-4 4-1 3 1 5 4 6l64 11c3 1 6-1 6-4 0-3-1-5-4-6l-65-11c0 0 0 0-1 0z m58-100c-1 0-2 0-3 1-2 2-2 5-1 7l43 50c2 2 5 3 7 1 2-2 2-5 0-7l-42-50c-1-2-2-2-4-2z m70 69c-1 0-2 0-3 1-21 14-34 38-34 64 0 43 34 78 76 78 27 0 52-15 65-39 2-2 1-5-2-7-2-1-5 0-6 2-12 21-34 34-57 34-36 0-66-31-66-68 0-22 11-43 29-56 3-2 3-5 2-7-1-1-3-2-4-2z m267 75l-152 0c-3 0-5 2-5 5 0 2 2 5 5 5l152 0c3 0 5-3 5-5 0-3-2-5-5-5z m-9-120l-256 0c-3 0-5 2-5 5 0 3 2 5 5 5l256 0c3 0 5-2 5-5 0-3-2-5-5-5z m77 0l-43 0c-3 0-5 2-5 5 0 3 2 5 5 5l43 0c2 0 5-2 5-5 0-3-3-5-5-5z m-95-120l-113 0c-2 0-5 2-5 5 0 3 3 5 5 5l113 0c2 0 4-2 4-5 0-3-2-5-4-5z m130 60l-196 0c-2 0-5 2-5 5 0 3 3 5 5 5l196 0c2 0 4-2 4-5 0-3-2-5-4-5z m-232 0l-85 0c-3 0-5 2-5 5 0 3 2 5 5 5l85 0c2 0 4-2 4-5 0-3-2-5-4-5z m232 120l-139 0c-3 0-5 2-5 5 0 2 2 5 5 5l139 0c2 0 4-3 4-5 0-3-2-5-4-5z m-179 0l-128 0c-2 0-4 2-4 5 0 2 2 5 4 5l128 0c3 0 5-3 5-5 0-3-2-5-5-5z"/>
<glyph glyph-name="sleet" unicode="&#109;" d="M405 187c-3 0-6 3-6 6 0 4 3 7 6 7 51 0 92 41 92 91 0 51-41 92-92 92-9 0-19-2-27-4l-6-2-2 6c-20 54-72 91-129 91-71 0-129-53-136-123l-1-7-7 1c-3 0-6 1-9 1-40 0-73-33-73-73 0-40 33-73 73-73 4 0 7-3 7-7 0-3-3-6-7-6-47 0-85 39-85 86 0 47 38 85 85 85 2 0 3 0 5 0 10 74 73 128 148 128 61 0 116-37 138-94 9 3 18 4 26 4 58 0 105-47 105-105 0-57-47-104-105-104z m-150 7c-17 0-30 13-30 30 0 17 22 45 25 49l5 6 5-6c2-4 25-32 25-49 0-17-13-30-30-30z m0 64c-8-11-17-26-17-34 0-12 8-17 17-17 8 0 17 5 17 17 0 8-9 23-17 34z m-36-232c-22 0-37 16-37 38 0 21 29 59 32 63l5 7 5-7c4-4 33-42 33-63 0-22-16-38-38-38z m0 87c-11-16-25-38-25-49 0-15 11-26 25-26 15 0 25 11 25 26 0 11-13 33-25 49z m-34 81c-1 3-5 4-8 2l-18-10 0 20c0 4-3 6-6 6-4 0-7-2-7-6l0-20-17 10c-3 2-7 1-9-2-2-3-1-7 3-9l17-10-17-10c-4-2-5-6-3-9 1-2 4-3 6-3 1 0 2 0 3 1l17 10 0-20c0-4 3-7 7-7 3 0 6 3 6 7l0 20 18-10c1-1 2-1 3-1 2 0 4 1 5 3 2 3 1 7-2 9l-17 10 17 10c3 2 4 6 2 9z m195-85l-36 21 36 20c3 2 4 6 2 9-2 3-6 4-9 2l-35-20 0 40c0 4-3 7-7 7-3 0-6-3-6-7l0-40-35 20c-3 2-7 1-9-2-2-3-1-7 2-9l36-20-36-21c-3-2-4-6-2-9 1-2 3-3 5-3 2 0 3 0 4 1l35 20 0-40c0-4 3-7 6-7 4 0 7 3 7 7l0 40 35-20c1-1 2-1 3-1 3 0 5 1 6 3 2 3 1 7-2 9z"/>
<glyph glyph-name="snow" unicode="&#110;" d="M407 154l-32 0c-4 0-7 3-7 7 0 3 3 6 7 6l32 0c51 0 92 42 92 93 0 51-41 92-92 92-10 0-19-1-28-4l-6-2-2 6c-20 55-72 92-130 92-72 0-131-54-138-125l-1-6-6 1c-4 0-7 0-9 0-41 0-74-33-74-73 0-41 33-74 74-74l34 0c4 0 7-3 7-6 0-4-3-7-7-7l-34 0c-48 0-87 39-87 87 0 47 39 86 87 86 1 0 2 0 4 0 11 74 74 130 150 130 61 0 117-38 140-95 8 2 17 3 26 3 58 0 105-47 105-105 0-59-47-106-105-106z m-68-60l-35 20 35 21c3 2 4 6 3 9-2 3-6 4-9 2l-36-20 0 41c0 3-3 6-6 6-4 0-7-3-7-6l0-41-36 20c-3 2-7 1-8-2-2-3-1-7 2-9l36-21-36-20c-3-2-4-6-2-9 1-2 3-3 5-3 1 0 2 0 3 1l36 20 0-41c0-4 3-7 7-7 3 0 6 3 6 7l0 41 36-20c1-1 2-1 3-1 2 0 4 1 6 3 1 3 0 7-3 9z m-111 88l-18 10 18 11c3 1 4 5 2 8-2 3-6 4-9 3l-17-11 0 21c0 3-3 6-7 6-3 0-6-3-6-6l0-21-18 11c-3 1-7 0-9-3-2-3 0-7 3-8l17-11-17-10c-3-2-5-6-3-9 1-2 4-3 6-3 1 0 2 0 3 1l18 10 0-20c0-4 3-7 6-7 4 0 7 3 7 7l0 20 17-10c1-1 2-1 4-1 2 0 4 1 5 3 2 3 1 7-2 9z"/>
<glyph glyph-name="sunny" unicode="&#111;" d="M256 149c-62 0-113 51-113 115 0 63 51 115 113 115 62 0 113-52 113-115 0-64-51-115-113-115z m0 217c-55 0-100-46-100-102 0-57 45-102 100-102 55 0 100 45 100 102 0 56-45 102-100 102z m0-362c-4 0-6 3-6 6l0 99c0 3 2 6 6 6 4 0 6-3 6-6l0-99c0-3-2-6-6-6z m163 59c-2 0-4 1-5 2l-63 76c-3 3-2 7 0 9 3 2 7 2 9-1l64-75c2-3 2-7-1-9-1-1-3-2-4-2z m87 150c-1 0-1 0-2 0l-97 17c-3 1-6 4-5 8 1 3 4 6 8 5l97-17c3-1 6-4 5-7-1-4-3-6-6-6z m-116 122c-2 0-4 1-6 3-1 3 0 7 3 9l85 49c3 2 7 1 9-2 2-4 1-7-2-9l-86-50c-1 0-2 0-3 0z m-81 68c-1 0-2 0-2 0-4 1-5 5-4 8l34 93c1 3 5 5 8 4 3-1 5-5 4-8l-34-93c-1-3-3-4-6-4z m-106 0c-3 0-5 1-6 4l-34 93c-1 3 1 7 4 8 3 1 7-1 8-4l34-93c1-3 0-7-4-8 0 0-1 0-2 0z m-81-68c-1 0-2 0-3 0l-86 50c-3 2-4 5-2 9 2 3 6 4 9 2l85-49c3-2 4-6 3-9-2-2-4-3-6-3z m-116-122c-3 0-5 2-6 5-1 4 2 7 5 8l97 17c4 1 7-2 8-5 1-4-2-7-5-8l-97-17c-1 0-1 0-2 0z m87-150c-1 0-3 1-4 2-3 2-3 6-1 9l64 75c2 3 6 3 9 1 2-2 3-6 0-9l-63-76c-1-1-3-2-5-2z"/>
<glyph glyph-name="sunshower" unicode="&#112;" d="M270 150l-4-5c-2-3-20-25-20-38 0-13 10-23 24-23 13 0 23 10 23 23 0 13-18 35-20 38z m0-56c-7 0-14 4-14 13 0 6 7 18 14 26 6-8 13-20 13-26 0-9-7-13-13-13z m80 42l-4 5-4-5c-3-4-30-39-30-58 0-21 14-35 34-35 20 0 34 14 34 35 0 19-27 54-30 58z m-4-83c-14 0-24 10-24 25 0 11 15 35 24 47 9-12 25-36 25-47 0-15-11-25-25-25z m85 51l-24 0c-3 0-5 3-5 5 0 3 2 5 5 5l24 0c39 0 71 32 71 71 0 39-32 71-71 71-7 0-14-1-21-3l-5-2-1 5c-15 42-55 70-100 70-55 0-100-41-105-95l-1-5-5 1c-3 0-5 0-7 0-31 0-56-25-56-56 0-31 25-57 56-57l26 0c3 0 5-2 5-5 0-2-2-5-5-5l-26 0c-37 0-66 30-66 67 0 36 29 66 66 66 1 0 2 0 3 0 8 57 57 99 115 99 47 0 90-29 107-73 7 2 13 3 20 3 45 0 81-36 81-81 0-44-36-81-81-81z m-222 293c-1 0-1 0-2 0-2 1-4 4-3 7l23 62c1 3 4 4 6 3 3-1 4-4 3-6l-22-63c-1-2-3-3-5-3z m55-46c-2 0-4 1-5 3-1 2 0 5 2 6l58 34c2 1 5 0 6-2 2-3 1-6-1-7l-58-33c-1-1-2-1-2-1z m-126 46c-2 0-4 1-5 3l-23 63c-1 2 1 5 3 6 3 1 6 0 6-3l23-62c1-3 0-6-3-7 0 0-1 0-1 0z m-55-46c-1 0-2 0-3 1l-57 33c-2 1-3 4-2 7 1 2 4 3 7 2l57-34c3-1 4-4 2-6-1-2-2-3-4-3z m-78-82c-2 0-4 2-5 4 0 3 2 6 4 6l66 12c2 0 5-2 5-4 1-3-1-6-4-6l-65-12c0 0-1 0-1 0z m58-101c-1 0-2 1-3 1-2 2-2 5 0 7l42 51c2 2 5 3 7 1 2-2 3-5 1-7l-43-51c-1-1-2-2-4-2z m70 70c0 0-1 0-2 1-22 15-34 39-34 65 0 43 34 78 76 78 27 0 53-15 66-39 2-2 1-5-2-6-2-2-5-1-6 1-12 21-34 34-58 34-37 0-66-30-66-68 0-23 11-44 29-57 3-1 3-4 2-7-1-1-3-2-5-2z"/>
<glyph glyph-name="thunderstorm" unicode="&#113;" d="M203 0l28 190-52 0 26 180 99 0-48-133 68 0z m-10 202l52 0-19-130 78 153-66 0 49 133-71 0z m207 21l-31 0c-3 0-6 3-6 7 0 3 3 6 6 6l31 0c49 0 88 39 88 88 0 49-39 88-88 88-9 0-18-1-27-4l-5-2-2 6c-19 52-69 88-125 88-68 0-124-51-131-119l-1-6-6 1c-3 0-6 0-9 0-39 0-70-31-70-70 0-39 31-70 70-70l33 0c4 0 6-3 6-6 0-4-2-7-6-7l-33 0c-45 0-82 37-82 83 0 46 37 83 82 83 2 0 3 0 4-1 11 71 71 124 143 124 59 0 112-36 134-91 8 2 17 4 25 4 55 0 100-46 100-101 0-56-45-101-100-101z"/>
<glyph glyph-name="thunderstorm-rainy" unicode="&#114;" d="M349 37c-21 0-36 16-36 37 0 21 28 57 31 61l5 6 5-6c3-4 32-40 32-61 0-21-16-37-37-37z m0 84c-11-14-24-36-24-47 0-14 10-24 24-24 14 0 24 10 24 24 0 11-13 33-24 47z m-203-22c-17 0-29 12-29 29 0 16 22 44 24 48l5 6 5-6c3-4 24-32 24-48 0-17-12-29-29-29z m0 63c-8-11-17-26-17-34 0-12 9-17 17-17 9 0 17 5 17 17 0 8-9 23-17 34z m63-162l28 190-52 0 26 180 99 0-48-133 68 0z m-10 202l52 0-19-130 78 153-66 0 49 133-71 0z m201 21l-31 0c-3 0-6 3-6 7 0 3 3 6 6 6l31 0c49 0 88 39 88 88 0 49-39 88-88 88-9 0-18-1-27-4l-5-2-2 6c-19 52-69 88-125 88-68 0-124-51-131-119l-1-6-6 1c-3 0-6 0-9 0-39 0-70-31-70-70 0-39 31-70 70-70l33 0c4 0 6-3 6-6 0-4-2-7-6-7l-33 0c-45 0-82 37-82 83 0 46 37 83 82 83 2 0 3 0 4-1 11 71 71 124 143 124 59 0 112-36 134-91 8 2 17 4 25 4 55 0 100-46 100-101 0-56-45-101-100-101z"/>
<glyph glyph-name="warning-sign" unicode="&#115;" d="M443 26l-374 0c-29 0-51 10-62 29-11 19-9 43 6 68l187 324c14 25 34 39 56 39 22 0 42-14 56-39l187-324c15-25 17-49 6-68-11-19-33-29-62-29z m-187 445c-16 0-32-11-43-32l-187-323c-12-21-14-40-6-54 8-14 25-21 49-21l374 0c24 0 41 7 49 21 8 14 6 33-6 54l-187 323c-11 21-27 32-43 32z m0-309l-7 17c-1 4-39 94-39 134 0 49 25 59 46 59 21 0 46-10 46-59 0-40-37-130-39-134z m0 195c-13 0-31-5-31-44 0-27 20-83 31-111 11 28 31 84 31 111 0 39-18 44-31 44z m0-276c-22 0-40 18-40 39 0 22 18 40 40 40 22 0 40-18 40-40 0-21-18-39-40-39z m0 64c-14 0-25-11-25-25 0-13 11-24 25-24 14 0 25 11 25 24 0 14-11 25-25 25z"/>
<glyph glyph-name="windy" unicode="&#116;" d="M349 275l-246 0c-3 0-5 2-5 6 0 3 2 5 5 5l246 0c31 0 56 26 56 58 0 31-25 57-56 57-22 0-42-14-51-35-2-2-5-4-8-3-3 2-4 5-3 8 11 25 35 41 62 41 37 0 67-31 67-68 0-38-30-69-67-69z m13-195c-3 0-6 3-6 6 0 3 3 6 6 6 24 0 43 20 43 44 0 25-19 45-43 45l-306 0c-3 0-5 2-5 6 0 3 2 5 5 5l306 0c30 0 55-25 55-56 0-31-25-56-55-56z m49 148l-404 0c-3 0-6 2-6 6 0 3 3 5 6 5l404 0c48 0 88 41 88 91 0 50-40 90-88 90-3 0-6 3-6 6 0 3 3 6 6 6 55 0 100-46 100-102 0-56-45-102-100-102z"/>
</font>
</defs>
</svg>
